<?xml version="1.0" encoding="UTF-8" standalone="no"?>
<svg width="31px" height="31px" viewBox="0 0 31 31" version="1.1" xmlns="http://www.w3.org/2000/svg" xmlns:xlink="http://www.w3.org/1999/xlink">
    <!-- Generator: Sketch 3.7.2 (28276) - http://www.bohemiancoding.com/sketch -->
    <title>Group 3</title>
    <desc>Created with Sketch.</desc>
    <defs></defs>
    <g id="Page-1" stroke="none" stroke-width="1" fill="none" fill-rule="evenodd">
        <g id="single-photo-view" transform="translate(-1330.000000, -39.000000)" fill="#D9D9D9" fill-opacity="60">
            <g id="Group-3" transform="translate(1330.000000, 39.000000)">
                <path d="M20.7049867,11.7074795 L30.707394,1.70538001 C31.0974843,1.31530173 31.0975428,0.682801429 30.7075246,0.292651039 C30.3175064,-0.0974993502 29.6851036,-0.0975578082 29.2950133,0.29252047 L19.292606,10.29462 C18.9025157,10.6846983 18.9024572,11.3171986 19.2924754,11.707349 C19.6824936,12.0974994 20.3148964,12.0975578 20.7049867,11.7074795 L20.7049867,11.7074795 Z" id="Stroke-1955"></path>
                <path d="M1.70498673,30.7074795 L11.707394,20.70538 C12.0974843,20.3153017 12.0975428,19.6828014 11.7075246,19.292651 C11.3175064,18.9025006 10.6851036,18.9024422 10.2950133,19.2925205 L0.292605953,29.29462 C-0.0974843292,29.6846983 -0.0975427782,30.3171986 0.292475404,30.707349 C0.682493585,31.0974994 1.31489645,31.0975578 1.70498673,30.7074795 L1.70498673,30.7074795 Z" id="Stroke-1956"></path>
                <path d="M26.0275319,10.0547918 L19.9724681,10.0547918 L20.9449361,11.0273959 L20.9449361,4.97260412 C20.9449361,4.43544969 20.5095473,4 19.9724681,4 C19.4353888,4 19,4.43544969 19,4.97260412 L19,11.0273959 C19,11.5645503 19.4353888,12 19.9724681,12 L26.0275319,12 C26.5646112,12 27,11.5645503 27,11.0273959 C27,10.4902415 26.5646112,10.0547918 26.0275319,10.0547918 L26.0275319,10.0547918 Z" id="Stroke-1957"></path>
                <path d="M12,26.0273959 L12,19.9726041 C12,19.4354497 11.5646112,19 11.0275319,19 L4.97246805,19 C4.43538878,19 4,19.4354497 4,19.9726041 C4,20.5097585 4.43538878,20.9452082 4.97246805,20.9452082 L11.0275319,20.9452082 L10.0550639,19.9726041 L10.0550639,26.0273959 C10.0550639,26.5645503 10.4904527,27 11.0275319,27 C11.5646112,27 12,26.5645503 12,26.0273959 L12,26.0273959 Z" id="Stroke-1958"></path>
                <path d="M19.292606,20.70538 L29.2950133,30.7074795 C29.6851036,31.0975578 30.3175064,31.0974994 30.7075246,30.707349 C31.0975428,30.3171986 31.0974843,29.6846983 30.707394,29.29462 L20.7049867,19.2925205 C20.3148964,18.9024422 19.6824936,18.9025006 19.2924754,19.292651 C18.9024572,19.6828014 18.9025157,20.3153017 19.292606,20.70538 L19.292606,20.70538 Z" id="Stroke-1959"></path>
                <path d="M0.292605953,1.70538001 L10.2950133,11.7074795 C10.6851036,12.0975578 11.3175064,12.0974994 11.7075246,11.707349 C12.0975428,11.3171986 12.0974843,10.6846983 11.707394,10.29462 L1.70498673,0.29252047 C1.31489645,-0.0975578082 0.682493585,-0.0974993502 0.292475404,0.292651039 C-0.0975427782,0.682801429 -0.0974843292,1.31530173 0.292605953,1.70538001 L0.292605953,1.70538001 Z" id="Stroke-1960"></path>
                <path d="M20.9449361,26.0273959 L20.9449361,19.9726041 L19.9724681,20.9452082 L26.0275319,20.9452082 C26.5646112,20.9452082 27,20.5097585 27,19.9726041 C27,19.4354497 26.5646112,19 26.0275319,19 L19.9724681,19 C19.4353888,19 19,19.4354497 19,19.9726041 L19,26.0273959 C19,26.5645503 19.4353888,27 19.9724681,27 C20.5095473,27 20.9449361,26.5645503 20.9449361,26.0273959 L20.9449361,26.0273959 Z" id="Stroke-1961"></path>
                <path d="M4.97246805,12 L11.0275319,12 C11.5646112,12 12,11.5645503 12,11.0273959 L12,4.97260412 C12,4.43544969 11.5646112,4 11.0275319,4 C10.4904527,4 10.0550639,4.43544969 10.0550639,4.97260412 L10.0550639,11.0273959 L11.0275319,10.0547918 L4.97246805,10.0547918 C4.43538878,10.0547918 4,10.4902415 4,11.0273959 C4,11.5645503 4.43538878,12 4.97246805,12 L4.97246805,12 Z" id="Stroke-1962"></path>
            </g>
        </g>
    </g>
</svg>
