<?xml version="1.0" encoding="UTF-8" standalone="no"?>
<svg width="41px" height="41px" viewBox="0 0 41 41" version="1.1" xmlns="http://www.w3.org/2000/svg" xmlns:xlink="http://www.w3.org/1999/xlink">
    <!-- Generator: Sketch 3.7.2 (28276) - http://www.bohemiancoding.com/sketch -->
    <title>icon-fullscreen</title>
    <desc>Created with Sketch.</desc>
    <defs>
    </defs>
    <g id="Page-1" stroke="none" stroke-width="1" fill="none" fill-rule="evenodd">
        <g id="album-page-preview" transform="translate(-878.000000, -590.000000)" fill="#D9D9D9" fill-opacity="60">
            <g id="icon-fullscreen" transform="translate(884.000000, 594.000000)">
                <path d="M20.7071068,11.7071068 L30.7071068,1.70710678 C31.0976311,1.31658249 31.0976311,0.683417511 30.7071068,0.292893219 C30.3165825,-0.0976310729 29.6834175,-0.0976310729 29.2928932,0.292893219 L19.2928932,10.2928932 C18.9023689,10.6834175 18.9023689,11.3165825 19.2928932,11.7071068 C19.6834175,12.0976311 20.3165825,12.0976311 20.7071068,11.7071068 L20.7071068,11.7071068 Z" id="Stroke-1963"></path>
                <path d="M1.70710678,30.7071068 L11.7071068,20.7071068 C12.0976311,20.3165825 12.0976311,19.6834175 11.7071068,19.2928932 C11.3165825,18.9023689 10.6834175,18.9023689 10.2928932,19.2928932 L0.292893219,29.2928932 C-0.0976310729,29.6834175 -0.0976310729,30.3165825 0.292893219,30.7071068 C0.683417511,31.0976311 1.31658249,31.0976311 1.70710678,30.7071068 L1.70710678,30.7071068 Z" id="Stroke-1964"></path>
                <path d="M7,29 L1,29 L2,30 L2,24 C2,23.4477153 1.55228475,23 1,23 C0.44771525,23 0,23.4477153 0,24 L0,30 C0,30.5522847 0.44771525,31 1,31 L7,31 C7.55228475,31 8,30.5522847 8,30 C8,29.4477153 7.55228475,29 7,29 L7,29 Z" id="Stroke-1965"></path>
                <path d="M31,7 L31,1 C31,0.44771525 30.5522847,0 30,0 L24,0 C23.4477153,0 23,0.44771525 23,1 C23,1.55228475 23.4477153,2 24,2 L30,2 L29,1 L29,7 C29,7.55228475 29.4477153,8 30,8 C30.5522847,8 31,7.55228475 31,7 L31,7 Z" id="Stroke-1966"></path>
                <path d="M19.2928932,20.7071068 L29.2928932,30.7071068 C29.6834175,31.0976311 30.3165825,31.0976311 30.7071068,30.7071068 C31.0976311,30.3165825 31.0976311,29.6834175 30.7071068,29.2928932 L20.7071068,19.2928932 C20.3165825,18.9023689 19.6834175,18.9023689 19.2928932,19.2928932 C18.9023689,19.6834175 18.9023689,20.3165825 19.2928932,20.7071068 L19.2928932,20.7071068 Z" id="Stroke-1967"></path>
                <path d="M0.292893219,1.70710678 L10.2928932,11.7071068 C10.6834175,12.0976311 11.3165825,12.0976311 11.7071068,11.7071068 C12.0976311,11.3165825 12.0976311,10.6834175 11.7071068,10.2928932 L1.70710678,0.292893219 C1.31658249,-0.0976310729 0.683417511,-0.0976310729 0.292893219,0.292893219 C-0.0976310729,0.683417511 -0.0976310729,1.31658249 0.292893219,1.70710678 L0.292893219,1.70710678 Z" id="Stroke-1968"></path>
                <path d="M2,7 L2,1 L1,2 L7,2 C7.55228475,2 8,1.55228475 8,1 C8,0.44771525 7.55228475,0 7,0 L1,0 C0.44771525,0 0,0.44771525 0,1 L0,7 C0,7.55228475 0.44771525,8 1,8 C1.55228475,8 2,7.55228475 2,7 L2,7 Z" id="Stroke-1969"></path>
                <path d="M24,31 L30,31 C30.5522847,31 31,30.5522847 31,30 L31,24 C31,23.4477153 30.5522847,23 30,23 C29.4477153,23 29,23.4477153 29,24 L29,30 L30,29 L24,29 C23.4477153,29 23,29.4477153 23,30 C23,30.5522847 23.4477153,31 24,31 L24,31 Z" id="Stroke-1970"></path>
            </g>
        </g>
    </g>
</svg>
