<?xml version="1.0" standalone="no"?>
<!DOCTYPE svg PUBLIC "-//W3C//DTD SVG 1.1//EN" "http://www.w3.org/Graphics/SVG/1.1/DTD/svg11.dtd" >
<svg xmlns="http://www.w3.org/2000/svg">
<metadata>Generated by IcoMoon</metadata>
<defs>
<font id="icomoon" horiz-adv-x="1024">
<font-face units-per-em="1024" ascent="960" descent="-64" />
<missing-glyph horiz-adv-x="1024" />
<glyph unicode="&#x20;" horiz-adv-x="512" d="" />
<glyph unicode="&#xe800;" glyph-name="back-arrow" d="M572.416 623.104c0-7.168 5.12-13.312 12.288-13.312h380.928c7.168 0 13.312-6.144 13.312-13.312v-300.032c0-7.168-6.144-13.312-13.312-13.312h-380.928c-7.168 0-12.288-5.12-12.288-12.288v-244.736c0-7.168-5.12-9.216-10.24-5.12l-512 422.912c-5.12 5.12-5.12 12.288 0 17.408l512 431.104c5.12 4.096 10.24 2.048 10.24-4.096v-265.216z" />
<glyph unicode="&#xe801;" glyph-name="tick" d="M483.328 121.344l7.168-51.2c0 0-60.416-13.312-142.336 3.072l6.144 51.2c0 0 67.584-11.264 129.024-3.072zM318.464 133.632l-14.336-50.176c0 0-60.416 11.264-129.024 59.392l26.624 44.032c0 0 51.2-39.936 116.736-53.248zM654.336 164.352l21.504-47.104c0 0-52.224-31.744-135.168-39.936l-9.216 47.104c0 0 60.416 5.12 122.88 39.936zM175.104 209.408l-37.888-34.816c0 0-45.056 41.984-77.824 118.784l46.080 23.552c0 0 23.552-61.44 69.632-107.52zM92.16 357.888l-50.176-12.288c0 0-20.48 57.344-14.336 140.288h52.224c0 0-8.192-64.512 12.288-128zM84.992 521.728l-51.2 3.072c0 0-3.072 61.44 28.672 138.24l49.152-15.36c0 0-30.72-58.368-26.624-125.952zM124.928 681.472l-44.032 27.648c0 0 27.648 55.296 93.184 106.496l34.816-36.864c0 0-52.224-34.816-83.968-97.28zM245.76 804.352l-19.456 48.128c0 0 54.272 29.696 137.216 34.816l7.168-51.2c0 0-62.464-5.12-124.928-31.744zM411.648 843.264l-5.12 51.2c0 0 59.392 13.312 141.312-5.12l-8.192-51.2c0 0-59.392 17.408-128 5.12zM574.464 833.024l28.672 43.008c0 0 57.344-22.528 115.712-81.92l-30.72-34.816c0 0-50.176 45.056-113.664 73.728zM801.792 612.864l44.032 11.264c0 0 16.384-57.344 15.36-140.288l-43.008-1.024c0 0 4.096 63.488-16.384 130.048zM819.2 434.688l41.984 1.024c0 0 7.168-60.416-17.408-140.288l-45.056 10.24c0 0 21.504 63.488 20.48 129.024zM776.192 275.968l43.008-28.672c0 0-28.672-54.272-95.232-104.448l-34.816 38.912c0 0 53.248 36.864 87.040 94.208zM234.496 625.152c-6.144 0-22.528-17.408-22.528-17.408l-52.224-49.152c0 0-14.336-8.192-18.432-22.528-2.048-5.12 4.096-8.192 14.336-18.432 57.344-58.368 237.568-259.072 304.128-317.44 15.36-13.312 19.456-16.384 20.48-17.408 0-1.024 4.096 4.096 21.504 28.672 60.416 83.968 221.184 395.264 432.128 593.92 12.288 11.264 26.624 28.672 47.104 49.152 0 0 31.744 60.416-41.984 39.936-94.208-26.624-514.048-443.392-514.048-443.392s-123.904 114.688-162.816 157.696c-4.096 5.12-14.336 17.408-27.648 16.384z" />
<glyph unicode="&#xe802;" glyph-name="header" horiz-adv-x="1062" d="M1061.926 960h-1061.926v-1024h1061.926v1024zM948.148 846.222v-796.444h-834.37v796.444h834.37zM189.63 770.37h682.667v-151.704h-682.667v151.704z" />
<glyph unicode="&#xe803;" glyph-name="font-a" d="M67.584-38.4l527.36 985.088h220.16l125.952-985.088h-190.464l-31.744 205.824-346.112 1.024-105.472-206.848h-199.68zM661.504 672.256l-187.392-329.728h203.776l-16.384 329.728z" />
<glyph unicode="&#xe804;" glyph-name="paint-bucket" d="M180.224 804.352c1.024 129.024 124.928 135.168 124.928 135.168 91.136 4.096 149.504-67.584 149.504-67.584 53.248-22.528 116.736-56.32 193.536-128 66.56-62.464 131.072-144.384 180.224-225.28 88.064-147.456 130.048-311.296 130.048-311.296 67.584-206.848-18.432-260.096-101.376-234.496-64.512 20.48-78.848 165.888-61.44 239.616 16.384 66.56 24.576 110.592 24.576 110.592s-241.664-259.072-283.648-283.648c-23.552-14.336-32.768-28.672-101.376 0-121.856 50.176-350.208 317.44-375.808 365.568-21.504 41.984-21.504 69.632 0 96.256 38.912 48.128 173.056 178.176 173.056 178.176-57.344 53.248-52.224 124.928-52.224 124.928zM272.384 730.624l129.024 107.52c0 0-56.32 78.848-138.24 30.72 0 0-84.992-59.392 9.216-138.24zM727.040 376.32c0 0-270.336 212.992-353.28 364.544l-59.392-61.44c0 0 75.776-181.248 359.424-359.424l53.248 56.32zM516.096 772.608c-76.8 79.872-118.784 5.12-83.968-31.744 66.56-71.68 209.92-234.496 209.92-234.496h128c-17.408 15.36-179.2 189.44-253.952 266.24z" />
<glyph unicode="&#xe805;" glyph-name="cart-empty" d="M663.552 267.776h-214.016l-129.024 319.488-5.12 12.288 26.624 11.264 6.144-12.288 121.856-301.056h193.536v-29.696zM705.536 379.392h-290.816v29.696h290.816c4.096 0 9.216 6.144 12.288 10.24l21.504 131.072 29.696-5.12-22.528-136.192-1.024-2.048c-2.048-3.072-16.384-27.648-39.936-27.648zM512 275.968c0-24.576-20.48-45.056-46.080-45.056s-46.080 20.48-46.080 45.056 20.48 46.080 46.080 46.080c25.6 0 46.080-20.48 46.080-46.080zM702.464 281.088c0-24.576-20.48-46.080-45.056-46.080-25.6 0-46.080 21.504-46.080 46.080s20.48 46.080 46.080 46.080c24.576 0 45.056-20.48 45.056-46.080zM316.416 595.456c-2.048 6.144-8.192 12.288-11.264 12.288v0c-15.36 0-50.176-2.048-50.176-2.048l-2.048 29.696c1.024 0 35.84 3.072 52.224 3.072 0 0 0 0 0 0 23.552 0 36.864-26.624 38.912-29.696l-27.648-13.312zM269.312 621.056c0-8.192-5.12-14.336-12.288-15.36-7.168 0-14.336 6.144-14.336 14.336-1.024 8.192 5.12 15.36 12.288 15.36 7.168 1.024 13.312-6.144 14.336-14.336zM756.736 560.64c7.168-1.024 13.312-8.192 11.264-15.36-1.024-7.168-8.192-11.264-16.384-10.24-8.192 2.048-13.312 8.192-12.288 15.36s9.216 12.288 17.408 10.24z" />
<glyph unicode="&#xe806;" glyph-name="palette" horiz-adv-x="1004" d="M877.568 726.528q73.728-49.152 103.424-112.64t20.48-106.496-35.84-49.152q-16.384-4.096-55.296 10.24t-81.92 10.24-81.92-47.104q-30.72-47.104-21.504-76.8t34.816-66.56 23.552-51.2q-2.048-26.624-36.864-64.512t-129.024-75.776-221.184-37.888q-190.464 0-297.984 103.424t-97.28 250.88q8.192 120.832 106.496 240.64t221.184 154.624q296.96 86.016 548.864-81.92zM551.936 249.344q30.72 0 53.248 22.528t22.528 55.296-22.528 54.272-53.248 21.504q-32.768 0-55.296-21.504t-22.528-54.272 22.528-55.296 55.296-22.528z" />
<glyph unicode="&#xe807;" glyph-name="feather" horiz-adv-x="715" d="M61.44-51.712q-6.144-20.48-26.624-8.192-18.432 8.192-16.384 34.816 4.096 102.4 51.2 231.424-102.4 157.696-53.248 323.584 10.24-32.768 32.768-79.872t45.056-81.92 32.768-30.72q8.192 4.096 0 84.992t-11.264 169.984 25.6 160.768q22.528 45.056 81.92 96.256t106.496 71.68q-24.576-47.104-33.792-96.256t-4.096-79.872 21.504-32.768q12.288 0 86.016 122.88t108.544 124.928q47.104 4.096 116.736-29.696t83.968-66.56q12.288-24.576 0-80.896t-40.96-84.992q-45.056-45.056-149.504-63.488t-116.736-24.576q-16.384-10.24 12.288-34.816 55.296-49.152 180.224-20.48-57.344-81.92-139.264-116.736t-135.168-38.912-55.296-10.24q-4.096-24.576 50.176-55.296t103.424-14.336q-30.72-57.344-64.512-86.016t-55.296-35.84-77.824-11.264-87.040-8.192z" />
<glyph unicode="&#xe808;" glyph-name="star-sharp" d="M0 571.904l388.096-2.048 128 368.64 119.808-372.736 388.096-8.192-316.416-225.28 112.64-374.784-314.368 230.4-317.44-220.16 121.856 368.64z" />
<glyph unicode="&#xe809;" glyph-name="file-image" horiz-adv-x="878" d="M838.656 742.912q16.384-16.384 27.648-43.008t11.264-51.2v-657.408q0-23.552-15.36-38.912t-38.912-16.384h-768q-23.552 0-38.912 16.384t-16.384 38.912v913.408q0 23.552 16.384 38.912t38.912 16.384h512q22.528 0 50.176-11.264t43.008-27.648zM584.704 882.176v-215.040h215.040q-5.12 16.384-12.288 23.552l-179.2 179.2q-6.144 7.168-23.552 12.288zM804.864 8.704v585.728h-237.568q-23.552 0-38.912 15.36t-16.384 38.912v238.592h-439.296v-878.592h732.16zM731.136 264.704v-182.272h-584.704v109.568l109.568 109.568 72.704-72.704 220.16 219.136zM256 375.296q-46.080 0-77.824 31.744t-31.744 77.824 31.744 77.824 77.824 31.744 77.824-31.744 31.744-77.824-31.744-77.824-77.824-31.744z" />
<glyph unicode="&#xe80a;" glyph-name="bullseye" horiz-adv-x="878" d="M584.704 448q0-60.416-41.984-103.424t-103.424-43.008-103.424 43.008-43.008 103.424 43.008 103.424 103.424 43.008 103.424-43.008 41.984-103.424zM658.432 448q0 91.136-64.512 155.648t-154.624 63.488-155.648-63.488-64.512-155.648 64.512-154.624 155.648-64.512 154.624 64.512 64.512 154.624zM731.136 448q0-120.832-84.992-206.848t-206.848-86.016-206.848 86.016-86.016 206.848 86.016 206.848 206.848 86.016 206.848-86.016 84.992-206.848zM804.864 448q0 74.752-29.696 142.336t-77.824 116.736-116.736 77.824-141.312 28.672-142.336-28.672-116.736-77.824-77.824-116.736-29.696-142.336 29.696-142.336 77.824-115.712 116.736-78.848 142.336-28.672 141.312 28.672 116.736 78.848 77.824 115.712 29.696 142.336zM877.568 448q0-119.808-58.368-220.16t-159.744-159.744-220.16-59.392-221.184 59.392-158.72 159.744-59.392 220.16 59.392 220.16 158.72 159.744 221.184 59.392 220.16-59.392 159.744-159.744 58.368-220.16z" />
<glyph unicode="&#xe80b;" glyph-name="book" horiz-adv-x="950" d="M936.96 686.592q22.528-32.768 10.24-73.728l-157.696-517.12q-10.24-36.864-43.008-61.44t-70.656-25.6h-527.36q-44.032 0-84.992 30.72t-56.32 75.776q-14.336 37.888-1.024 72.704 0 2.048 1.024 15.36t3.072 20.48q0 5.12-2.048 12.288t-2.048 11.264q1.024 6.144 5.12 12.288t9.216 13.312 9.216 13.312q13.312 21.504 25.6 52.224t17.408 52.224q2.048 6.144 0 17.408t0 16.384q2.048 6.144 9.216 15.36t10.24 13.312q12.288 20.48 23.552 52.224t14.336 52.224q1.024 5.12-1.024 17.408t0 16.384q2.048 7.168 12.288 17.408t13.312 13.312q10.24 14.336 23.552 48.128t16.384 55.296q0 4.096-2.048 14.336t-1.024 15.36q1.024 4.096 5.12 10.24t10.24 13.312 10.24 11.264q4.096 7.168 9.216 17.408t8.192 20.48 9.216 20.48 11.264 18.432 15.36 13.312 20.48 6.144 26.624-3.072v-1.024q21.504 5.12 28.672 5.12h435.2q41.984 0 64.512-32.768t10.24-73.728l-155.648-518.144q-20.48-67.584-40.96-87.040t-73.728-20.48h-496.64q-15.36 0-21.504-8.192-6.144-9.216-1.024-24.576 14.336-39.936 82.944-39.936h527.36q16.384 0 31.744 9.216t19.456 23.552l172.032 563.2q4.096 13.312 3.072 32.768 21.504-8.192 33.792-24.576zM328.704 685.568q-2.048-7.168 1.024-12.288t11.264-6.144h347.136q8.192 0 15.36 6.144t9.216 12.288l12.288 36.864q2.048 7.168-2.048 12.288t-11.264 6.144h-347.136q-7.168 0-14.336-6.144t-9.216-12.288zM281.6 539.136q-3.072-7.168 1.024-12.288t11.264-6.144h347.136q7.168 0 14.336 6.144t10.24 12.288l11.264 36.864q3.072 7.168-1.024 13.312t-11.264 5.12h-347.136q-8.192 0-14.336-5.12t-10.24-13.312z" />
<glyph unicode="&#xe80c;" glyph-name="bolt" horiz-adv-x="512" d="M505.856 636.416q10.24-11.264 4.096-24.576l-309.248-661.504q-7.168-14.336-23.552-14.336-2.048 0-8.192 1.024-9.216 3.072-14.336 11.264t-3.072 16.384l112.64 461.824-231.424-57.344q-2.048-1.024-7.168-1.024-10.24 0-17.408 7.168-10.24 8.192-7.168 21.504l114.688 472.064q2.048 8.192 9.216 13.312t15.36 5.12h187.392q11.264 0 18.432-7.168t7.168-17.408q0-4.096-2.048-10.24l-98.304-264.192 226.304 55.296q5.12 2.048 7.168 2.048 11.264 0 19.456-9.216z" />
<glyph unicode="&#xe80d;" glyph-name="bullhorn" d="M951.296 594.432q29.696 0 51.2-21.504t21.504-52.224-21.504-51.2-51.2-21.504v-219.136q0-29.696-22.528-51.2t-51.2-22.528q-238.592 198.656-463.872 217.088-32.768-10.24-52.224-36.864t-17.408-58.368 22.528-52.224q-11.264-19.456-13.312-37.888t4.096-32.768 18.432-31.744 27.648-28.672 35.84-28.672q-17.408-32.768-64.512-47.104t-96.256-7.168-74.752 31.744q-4.096 13.312-17.408 50.176t-18.432 54.272-12.288 51.2-9.216 57.344 2.048 56.32 12.288 63.488h-69.632q-36.864 0-64.512 26.624t-26.624 64.512v109.568q0 37.888 26.624 64.512t64.512 26.624h274.432q248.832 0 512 220.16 29.696 0 51.2-22.528t22.528-51.2v-219.136zM877.568 249.344v544.768q-225.28-172.032-438.272-195.584v-154.624q215.040-23.552 438.272-194.56z" />
<glyph unicode="&#xe80e;" glyph-name="camera-retro" d="M530.432 484.864q0 8.192-5.12 13.312t-13.312 5.12q-37.888 0-64.512-27.648t-26.624-64.512q0-8.192 5.12-13.312t13.312-5.12 12.288 5.12 5.12 13.312q0 23.552 16.384 38.912t38.912 16.384q8.192 0 13.312 5.12t5.12 13.312zM658.432 410.112q0-60.416-43.008-103.424t-103.424-43.008-103.424 43.008-43.008 103.424 43.008 103.424 103.424 43.008 103.424-43.008 43.008-103.424zM72.704 82.432h878.592v72.704h-878.592v-72.704zM731.136 410.112q0 91.136-63.488 155.648t-155.648 63.488-154.624-63.488-64.512-155.648 64.512-154.624 154.624-64.512 155.648 64.512 63.488 154.624zM146.432 776.704h219.136v73.728h-219.136v-73.728zM72.704 667.136h878.592v146.432h-473.088l-36.864-72.704h-368.64v-73.728zM1024 813.568v-731.136q0-30.72-21.504-52.224t-51.2-21.504h-878.592q-29.696 0-51.2 21.504t-21.504 52.224v731.136q0 30.72 21.504 52.224t51.2 21.504h878.592q29.696 0 51.2-21.504t21.504-52.224z" />
<glyph unicode="&#xe80f;" glyph-name="cut" d="M548.864 448q14.336 0 25.6-11.264t10.24-25.6-10.24-25.6-25.6-10.24-25.6 10.24-11.264 25.6 11.264 25.6 25.6 11.264zM719.872 411.136l289.792-227.328q16.384-11.264 14.336-31.744-3.072-20.48-20.48-28.672l-72.704-36.864q-7.168-4.096-16.384-4.096-10.24 0-17.408 4.096l-394.24 221.184-63.488-37.888q-4.096-2.048-7.168-2.048 8.192-28.672 6.144-55.296-4.096-44.032-31.744-84.992t-75.776-70.656q-75.776-48.128-157.696-48.128-77.824 0-126.976 45.056-52.224 48.128-45.056 118.784 4.096 43.008 31.744 83.968t74.752 70.656q75.776 48.128 158.72 48.128 47.104 0 86.016-18.432 5.12 8.192 13.312 13.312l69.632 40.96-69.632 41.984q-8.192 5.12-13.312 12.288-38.912-17.408-86.016-17.408-82.944 0-158.72 48.128-47.104 29.696-74.752 70.656t-31.744 83.968q-3.072 33.792 8.192 64.512t36.864 53.248q48.128 45.056 126.976 45.056 81.92 0 157.696-48.128 47.104-29.696 75.776-69.632t31.744-84.992q2.048-27.648-6.144-55.296 3.072-1.024 7.168-3.072l63.488-37.888 394.24 221.184q7.168 5.12 17.408 5.12 9.216 0 16.384-4.096l72.704-36.864q17.408-9.216 20.48-28.672 2.048-20.48-14.336-32.768zM330.752 559.616q26.624 24.576 12.288 62.464t-60.416 66.56q-53.248 33.792-109.568 33.792-43.008 0-64.512-20.48-26.624-24.576-12.288-61.44t60.416-67.584q52.224-33.792 109.568-33.792 41.984 0 64.512 20.48zM282.624 134.656q46.080 28.672 60.416 66.56t-12.288 61.44q-22.528 20.48-64.512 20.48-57.344 0-109.568-33.792-46.080-28.672-60.416-66.56t12.288-61.44q21.504-20.48 64.512-20.48 56.32 0 109.568 33.792zM384 484.864l55.296-33.792v7.168q0 20.48 18.432 31.744l8.192 4.096-45.056 26.624-15.36-14.336q-1.024-2.048-5.12-6.144t-7.168-7.168q-1.024-1.024-2.048-2.048t-2.048-1.024zM512 356.864l55.296-18.432 419.84 328.704-72.704 36.864-439.296-245.76v-65.536l-91.136-54.272 5.12-5.12q1.024-1.024 4.096-3.072 2.048-2.048 6.144-7.168t6.144-6.144l15.36-15.36zM914.432 119.296l72.704 35.84-296.96 233.472-101.376-78.848q-1.024-2.048-7.168-4.096z" />
<glyph unicode="&#xe810;" glyph-name="dashboard" d="M219.136 301.568q0 30.72-21.504 52.224t-51.2 21.504-52.224-21.504-21.504-52.224 21.504-51.2 52.224-21.504 51.2 21.504 21.504 51.2zM328.704 557.568q0 30.72-20.48 52.224t-52.224 21.504-51.2-21.504-21.504-52.224 21.504-51.2 51.2-21.504 52.224 21.504 20.48 51.2zM573.44 283.136l58.368 218.112q3.072 14.336-5.12 27.648t-21.504 16.384-27.648-3.072-17.408-22.528l-57.344-218.112q-33.792-3.072-61.44-25.6t-35.84-56.32q-11.264-44.032 11.264-82.944t67.584-51.2 82.944 11.264 51.2 67.584q9.216 33.792-4.096 66.56t-40.96 52.224zM951.296 301.568q0 30.72-21.504 52.224t-52.224 21.504-51.2-21.504-21.504-52.224 21.504-51.2 51.2-21.504 52.224 21.504 21.504 51.2zM584.704 667.136q0 30.72-20.48 52.224t-52.224 21.504-51.2-21.504-21.504-52.224 21.504-51.2 51.2-21.504 52.224 21.504 20.48 51.2zM840.704 557.568q0 30.72-20.48 52.224t-52.224 21.504-51.2-21.504-21.504-52.224 21.504-51.2 51.2-21.504 52.224 21.504 20.48 51.2zM1024 301.568q0-148.48-80.896-275.456-10.24-17.408-30.72-17.408h-800.768q-20.48 0-30.72 17.408-80.896 125.952-80.896 275.456 0 104.448 40.96 198.656t108.544 163.84 163.84 109.568 198.656 39.936 198.656-39.936 163.84-109.568 108.544-163.84 40.96-198.656z" />
<glyph unicode="&#xe811;" glyph-name="eye-open" d="M951.296 411.136q-87.040 135.168-218.112 201.728 34.816-59.392 34.816-128 0-106.496-74.752-181.248t-181.248-74.752-181.248 74.752-74.752 181.248q0 68.608 34.816 128-131.072-66.56-218.112-201.728 76.8-116.736 191.488-186.368t247.808-69.632 247.808 69.632 191.488 186.368zM539.648 631.296q0 11.264-8.192 19.456t-19.456 7.168q-71.68 0-122.88-51.2t-51.2-121.856q0-12.288 8.192-19.456t19.456-8.192 19.456 8.192 8.192 19.456q0 49.152 34.816 83.968t83.968 34.816q11.264 0 19.456 8.192t8.192 19.456zM1024 411.136q0-19.456-11.264-38.912-79.872-132.096-215.040-210.944t-285.696-78.848-285.696 78.848-215.040 210.944q-11.264 19.456-11.264 38.912t11.264 39.936q79.872 131.072 215.040 209.92t285.696 79.872 285.696-79.872 215.040-209.92q11.264-20.48 11.264-39.936z" />
<glyph unicode="&#xe812;" glyph-name="gift" horiz-adv-x="878" d="M530.432 184.832v409.6h-183.296v-409.6q0-14.336 10.24-21.504t26.624-8.192h109.568q16.384 0 26.624 8.192t10.24 21.504zM269.312 667.136h111.616l-71.68 92.16q-15.36 17.408-39.936 17.408-22.528 0-38.912-15.36t-15.36-38.912 15.36-38.912 38.912-16.384zM662.528 722.432q0 22.528-15.36 38.912t-38.912 15.36q-24.576 0-39.936-17.408l-70.656-92.16h110.592q22.528 0 38.912 16.384t15.36 38.912zM877.568 576v-183.296q0-7.168-5.12-12.288t-13.312-5.12h-54.272v-238.592q0-22.528-16.384-37.888t-38.912-16.384h-621.568q-22.528 0-38.912 16.384t-16.384 37.888v238.592h-54.272q-8.192 0-13.312 5.12t-5.12 12.288v183.296q0 8.192 5.12 13.312t13.312 5.12h250.88q-52.224 0-90.112 36.864t-37.888 91.136 37.888 90.112 90.112 37.888q61.44 0 96.256-44.032l73.728-94.208 72.704 94.208q34.816 44.032 96.256 44.032 53.248 0 90.112-37.888t37.888-90.112-37.888-91.136-90.112-36.864h250.88q8.192 0 13.312-5.12t5.12-13.312z" />
<glyph unicode="&#xe813;" glyph-name="glass" d="M970.752 853.504q0-19.456-24.576-44.032l-361.472-361.472v-439.296h183.296q15.36 0 25.6-10.24t11.264-25.6-11.264-25.6-25.6-11.264h-512q-14.336 0-25.6 11.264t-11.264 25.6 11.264 25.6 25.6 10.24h183.296v439.296l-361.472 361.472q-24.576 24.576-24.576 44.032 0 13.312 10.24 21.504t21.504 9.216 24.576 3.072h804.864q13.312 0 24.576-3.072t21.504-9.216 10.24-21.504z" />
<glyph unicode="&#xe814;" glyph-name="globe" horiz-adv-x="878" d="M439.296 887.296q118.784 0 220.16-59.392t159.744-159.744 58.368-220.16-58.368-220.16-159.744-159.744-220.16-59.392-221.184 59.392-158.72 159.744-59.392 220.16 59.392 220.16 158.72 159.744 221.184 59.392zM594.944 589.312q-1.024-1.024-5.12-5.12t-7.168-6.144q1.024 0 2.048 3.072t3.072 6.144 2.048 4.096q3.072 4.096 12.288 8.192 8.192 4.096 29.696 7.168 19.456 5.12 29.696-6.144-1.024 1.024 5.12 7.168t8.192 7.168 8.192 2.048 9.216 5.12l1.024 12.288q-7.168-1.024-10.24 4.096t-3.072 12.288q0-2.048-4.096-5.12 0 4.096-2.048 5.12t-7.168-1.024-5.12-1.024q-5.12 2.048-8.192 5.12t-5.12 9.216-2.048 8.192q-1.024 3.072-5.12 6.144t-5.12 6.144q-1.024 1.024-2.048 3.072t-2.048 4.096-2.048 3.072-3.072 1.024-4.096-3.072-4.096-5.12-2.048-3.072q-2.048 1.024-4.096 1.024t-2.048-1.024-3.072-2.048-3.072-2.048q-1.024-1.024-4.096-1.024t-5.12-1.024q8.192 3.072-1.024 6.144-5.12 2.048-9.216 1.024 5.12 3.072 5.12 7.168t-5.12 8.192h3.072q-1.024 2.048-5.12 5.12t-10.24 4.096-7.168 4.096q-5.12 3.072-19.456 5.12t-18.432 0q-3.072-3.072-3.072-5.12t2.048-8.192 2.048-7.168q1.024-4.096-3.072-7.168t-3.072-7.168q0-4.096 7.168-9.216t6.144-12.288q-2.048-4.096-9.216-9.216t-9.216-6.144q-3.072-5.12-1.024-11.264t6.144-9.216q1.024-1.024 1.024-2.048t-2.048-3.072-3.072-2.048-4.096-2.048l-1.024-1.024q-7.168-3.072-12.288 3.072t-7.168 15.36q-4.096 14.336-9.216 17.408-13.312 4.096-17.408-1.024-2.048 7.168-22.528 15.36-14.336 5.12-33.792 2.048 4.096 0 0 8.192-4.096 9.216-10.24 7.168 1.024 3.072 2.048 10.24t0 7.168q2.048 7.168 7.168 13.312 1.024 1.024 4.096 5.12t5.12 7.168 1.024 4.096q19.456-3.072 28.672 6.144 2.048 2.048 6.144 9.216t6.144 10.24q5.12 3.072 8.192 3.072t8.192-3.072 8.192-3.072q8.192-1.024 8.192 6.144t-4.096 11.264q7.168 0 2.048 10.24-3.072 4.096-5.12 5.12-6.144 2.048-15.36-3.072-4.096-2.048 2.048-4.096-1.024 0-6.144-6.144t-9.216-10.24-9.216 3.072q0 0-3.072 7.168t-5.12 8.192q-5.12 0-9.216-9.216 1.024 5.12-6.144 9.216t-14.336 4.096q11.264 7.168-4.096 15.36-4.096 3.072-12.288 3.072t-11.264-2.048q-2.048-4.096-3.072-7.168t3.072-4.096 6.144-3.072 6.144-2.048 5.12-2.048q8.192-6.144 5.12-8.192-1.024 0-5.12-2.048t-6.144-2.048-4.096-3.072q-2.048-2.048 0-7.168t-1.024-8.192q-3.072 3.072-5.12 10.24t-4.096 9.216q4.096-5.12-14.336-4.096l-5.12 1.024q-3.072 0-9.216-1.024t-12.288-1.024-7.168 5.12q-3.072 4.096 0 11.264 0 2.048 2.048 1.024-2.048 2.048-6.144 5.12t-6.144 5.12q-25.6-8.192-53.248-23.552 3.072 0 6.144 1.024t8.192 3.072 5.12 4.096q19.456 7.168 24.576 3.072l3.072 3.072q7.168-9.216 11.264-14.336-4.096 3.072-17.408 1.024-11.264-4.096-12.288-7.168 4.096-7.168 2.048-10.24-2.048 2.048-6.144 6.144t-8.192 6.144-8.192 3.072q-9.216 0-13.312-1.024-82.944-46.080-134.144-126.976 4.096-4.096 7.168-4.096 2.048-1.024 3.072-5.12t1.024-6.144 6.144 1.024q5.12-4.096 2.048-10.24 1.024 0 25.6-15.36 10.24-10.24 11.264-12.288 2.048-6.144-5.12-10.24-1.024 1.024-5.12 5.12t-5.12 2.048q-2.048-3.072 0-10.24t6.144-7.168q-4.096 0-5.12-9.216t-2.048-20.48 0-13.312l1.024-1.024q-2.048-6.144 3.072-19.456t12.288-11.264q-7.168-1.024 11.264-24.576 3.072-4.096 4.096-5.12 2.048-1.024 7.168-4.096t9.216-6.144 5.12-5.12q2.048-3.072 6.144-13.312t8.192-13.312q-2.048-3.072 5.12-11.264t6.144-13.312q-1.024 0-2.048-1.024t-1.024 0q2.048-4.096 9.216-8.192t8.192-7.168q1.024-2.048 1.024-6.144t2.048-6.144 4.096-1.024q2.048 11.264-13.312 34.816-8.192 14.336-9.216 17.408-2.048 2.048-4.096 8.192t-2.048 8.192q1.024 0 3.072 0t5.12-2.048 4.096-3.072 1.024-1.024q-1.024-4.096 1.024-10.24t7.168-10.24 10.24-11.264 6.144-7.168q4.096-4.096 8.192-11.264t0-8.192q5.12 0 11.264-5.12t10.24-11.264q3.072-5.12 4.096-15.36t3.072-13.312q1.024-4.096 5.12-8.192t7.168-5.12l9.216-5.12t7.168-3.072q3.072-2.048 10.24-6.144t12.288-7.168q6.144-2.048 9.216-2.048t8.192 1.024 8.192 2.048q8.192 1.024 16.384-8.192t12.288-12.288q20.48-10.24 30.72-6.144-1.024 0 1.024-4.096t4.096-9.216 5.12-8.192 3.072-5.12q3.072-3.072 10.24-8.192t10.24-8.192q4.096 2.048 4.096 5.12-1.024-5.12 4.096-11.264t10.24-6.144q8.192 2.048 8.192 18.432-17.408-9.216-27.648 10.24 0 0-2.048 3.072t-2.048 5.12-1.024 4.096 0 5.12 2.048 1.024q5.12 0 6.144 2.048t-1.024 7.168-2.048 8.192q-1.024 4.096-6.144 11.264t-7.168 8.192q-3.072-5.12-9.216-4.096t-9.216 5.12q0-1.024-1.024-3.072t-1.024-4.096q-7.168 0-8.192 0 1.024 2.048 1.024 10.24t2.048 13.312q1.024 2.048 3.072 6.144t5.12 9.216 2.048 7.168-3.072 5.12-9.216 1.024q-11.264 0-15.36-11.264-1.024-2.048-2.048-6.144t-2.048-6.144-5.12-4.096-14.336-1.024-13.312 3.072q-8.192 4.096-13.312 16.384t-5.12 20.48q0 6.144 1.024 15.36t2.048 14.336-3.072 14.336q2.048 1.024 5.12 5.12t5.12 6.144q2.048 1.024 3.072 1.024t2.048 0 3.072 1.024 1.024 3.072q0 1.024-2.048 2.048t-2.048 1.024q4.096-1.024 16.384 1.024t15.36-1.024q9.216-6.144 12.288 1.024 0 1.024-1.024 6.144t0 7.168q3.072-15.36 16.384-5.12 2.048-1.024 9.216-3.072t9.216-2.048q2.048-1.024 4.096-3.072t3.072-3.072 3.072 0 5.12 4.096q5.12-8.192 7.168-13.312 6.144-23.552 10.24-25.6t6.144-1.024 3.072 5.12 0 8.192-1.024 7.168l-1.024 4.096v15.36q-8.192 2.048-10.24 7.168t0 10.24 9.216 10.24q0 1.024 4.096 2.048t9.216 4.096 7.168 4.096q12.288 11.264 8.192 20.48 4.096 0 6.144 5.12 0 0-2.048 2.048t-5.12 2.048-2.048 2.048q5.12 2.048 1.024 8.192 3.072 2.048 4.096 7.168t4.096 5.12q5.12-7.168 12.288-1.024 4.096 5.12 1.024 9.216 2.048 4.096 11.264 6.144t10.24 5.12q4.096-1.024 5.12 1.024t0 7.168 2.048 7.168q2.048 2.048 8.192 5.12t8.192 2.048l9.216 7.168q2.048 2.048 0 2.048 10.24-1.024 18.432 6.144 5.12 6.144-4.096 11.264 2.048 3.072-2.048 5.12t-8.192 3.072q2.048 1.024 7.168 1.024t5.12 1.024q9.216 5.12-4.096 9.216-9.216 2.048-24.576-7.168zM502.784 87.552q116.736 21.504 199.68 108.544-1.024 2.048-7.168 2.048t-7.168 2.048q-10.24 4.096-13.312 5.12 1.024 4.096-1.024 7.168t-5.12 5.12-7.168 5.12-6.144 4.096q-1.024 1.024-4.096 3.072t-4.096 3.072-4.096 2.048-5.12 2.048-5.12-1.024l-2.048-1.024q-2.048 0-3.072-1.024t-3.072-2.048-2.048-1.024 0-2.048q-12.288 10.24-20.48 13.312-3.072 0-7.168 3.072t-5.12 4.096-6.144 0-6.144-4.096q-3.072-2.048-4.096-8.192t-1.024-7.168q-4.096 3.072 0 10.24t1.024 10.24q-1.024 3.072-6.144 2.048t-6.144-2.048-7.168-5.12-5.12-3.072-4.096-3.072-5.12-5.12q-2.048-2.048-4.096-6.144t-2.048-7.168q-1.024 3.072-7.168 4.096t-5.12 3.072q1.024-5.12 2.048-19.456t3.072-22.528q4.096-17.408-7.168-26.624-15.36-14.336-16.384-23.552-2.048-12.288 7.168-14.336 0-4.096-5.12-12.288t-4.096-12.288q0-3.072 2.048-9.216z" />
<glyph unicode="&#xe815;" glyph-name="heart" d="M512 8.704q-14.336 0-25.6 10.24l-356.352 344.064q-5.12 5.12-15.36 15.36t-31.744 36.864-38.912 56.32-30.72 68.608-13.312 78.848q0 125.952 72.704 196.608t200.704 71.68q34.816 0 71.68-12.288t68.608-33.792 55.296-38.912 43.008-38.912q20.48 20.48 43.008 38.912t55.296 38.912 68.608 33.792 71.68 12.288q128 0 200.704-71.68t72.704-196.608q0-125.952-131.072-257.024l-355.328-343.040q-10.24-10.24-25.6-10.24z" />
<glyph unicode="&#xe816;" glyph-name="home" horiz-adv-x="950" d="M804.864 392.704v-273.408q0-15.36-11.264-26.624t-25.6-10.24h-219.136v219.136h-146.432v-219.136h-219.136q-15.36 0-25.6 10.24t-11.264 26.624v273.408q0 1.024 0 2.048t0 2.048l328.704 270.336 328.704-270.336q1.024-1.024 1.024-4.096zM931.84 432.64l-34.816-41.984q-5.12-5.12-12.288-6.144h-2.048q-7.168 0-12.288 3.072l-395.264 329.728-395.264-329.728q-7.168-4.096-13.312-4.096-7.168 2.048-12.288 7.168l-35.84 41.984q-4.096 5.12-3.072 13.312t6.144 12.288l410.624 342.016q18.432 15.36 43.008 15.36t44.032-15.36l139.264-116.736v111.616q0 8.192 5.12 13.312t13.312 5.12h109.568q8.192 0 13.312-5.12t5.12-13.312v-232.448l124.928-104.448q5.12-5.12 6.144-12.288t-4.096-13.312z" />
<glyph unicode="&#xe817;" glyph-name="leaf" d="M731.136 557.568q0 15.36-10.24 25.6t-25.6 11.264q-98.304 0-182.272-28.672t-148.48-76.8-134.144-124.928q-11.264-12.288-11.264-25.6 0-15.36 11.264-25.6t25.6-11.264q13.312 0 25.6 11.264 15.36 13.312 41.984 39.936t38.912 37.888q77.824 70.656 153.6 100.352t179.2 29.696q14.336 0 25.6 11.264t10.24 25.6zM1024 671.232q0-54.272-11.264-110.592-26.624-128-105.472-219.136t-204.8-152.576q-121.856-62.464-249.856-62.464-84.992 0-163.84 27.648-8.192 2.048-50.176 23.552t-54.272 21.504q-9.216 0-22.528-18.432t-25.6-39.936-30.72-39.936-33.792-18.432q-17.408 0-29.696 6.144t-17.408 13.312-15.36 24.576q-1.024 2.048-3.072 6.144t-3.072 6.144-2.048 5.12-1.024 7.168q0 20.48 17.408 41.984t38.912 37.888 38.912 31.744 18.432 27.648q0 2.048-8.192 21.504t-9.216 25.6q-5.12 28.672-5.12 59.392 0 65.536 24.576 125.952t67.584 105.472 98.304 78.848 115.712 54.272q31.744 10.24 82.944 15.36t102.4 5.12 102.4 3.072 93.184 13.312 65.536 32.768l16.384 16.384t17.408 16.384 15.36 11.264 20.48 9.216 24.576 3.072q22.528 0 40.96-26.624t26.624-64.512 14.336-70.656 4.096-54.272z" />
<glyph unicode="&#xe818;" glyph-name="legal" d="M1011.712 82.432q0-30.72-20.48-51.2l-61.44-62.464q-22.528-20.48-52.224-20.48t-51.2 20.48l-207.872 208.896q-21.504 20.48-21.504 51.2 0 29.696 24.576 54.272l-146.432 146.432-71.68-71.68q-8.192-8.192-19.456-8.192t-19.456 8.192q1.024-1.024 7.168-7.168t7.168-7.168 6.144-7.168 5.12-7.168 4.096-8.192 3.072-9.216 0-10.24q0-21.504-15.36-38.912-2.048-1.024-9.216-10.24t-11.264-11.264-10.24-9.216-13.312-9.216-12.288-5.12-14.336-3.072q-23.552 0-38.912 16.384l-233.472 233.472q-16.384 15.36-16.384 38.912 0 7.168 3.072 14.336t5.12 12.288 9.216 13.312 9.216 10.24 11.264 11.264 10.24 9.216q17.408 15.36 38.912 15.36 6.144 0 10.24 0t9.216-4.096 8.192-3.072 8.192-5.12 6.144-6.144 7.168-7.168 7.168-7.168q-8.192 8.192-8.192 19.456t8.192 19.456l198.656 198.656q8.192 8.192 19.456 8.192t19.456-8.192q-1.024 1.024-7.168 7.168t-7.168 7.168-6.144 7.168-5.12 7.168-3.072 8.192-4.096 9.216 0 10.24q0 21.504 15.36 38.912 2.048 1.024 9.216 10.24t11.264 11.264 10.24 9.216 13.312 9.216 12.288 5.12 14.336 3.072q23.552 0 38.912-16.384l233.472-233.472q16.384-15.36 16.384-38.912 0-7.168-3.072-14.336t-5.12-12.288-8.192-13.312-10.24-10.24-11.264-11.264-10.24-9.216q-17.408-15.36-38.912-15.36-6.144 0-10.24 0t-9.216 4.096-8.192 3.072-7.168 5.12-7.168 6.144-7.168 7.168-7.168 7.168q8.192-8.192 8.192-19.456t-8.192-19.456l-71.68-71.68 146.432-146.432q24.576 24.576 54.272 24.576t52.224-21.504l207.872-206.848q20.48-22.528 20.48-52.224z" />
<glyph unicode="&#xe819;" glyph-name="magic" horiz-adv-x="950" d="M679.936 628.224l167.936 166.912-61.44 61.44-167.936-167.936zM934.912 795.136q0-15.36-10.24-25.6l-734.208-735.232q-10.24-10.24-25.6-10.24t-25.6 10.24l-113.664 113.664q-10.24 10.24-10.24 25.6t10.24 25.6l735.232 735.232q10.24 10.24 25.6 10.24t25.6-10.24l112.64-113.664q10.24-10.24 10.24-25.6zM163.84 903.68l55.296-16.384-55.296-17.408-17.408-56.32-17.408 56.32-56.32 17.408 56.32 16.384 17.408 56.32zM363.52 811.52l111.616-34.816-111.616-33.792-34.816-111.616-33.792 111.616-111.616 33.792 111.616 34.816 33.792 111.616zM894.976 538.112l56.32-17.408-56.32-16.384-17.408-56.32-17.408 56.32-55.296 16.384 55.296 17.408 17.408 56.32zM529.408 903.68l55.296-16.384-55.296-17.408-17.408-56.32-17.408 56.32-55.296 17.408 55.296 16.384 17.408 56.32z" />
<glyph unicode="&#xe81a;" glyph-name="music" horiz-adv-x="878" d="M877.568 832v-640q0-28.672-19.456-51.2t-49.152-33.792-59.392-18.432-54.272-6.144-55.296 6.144-59.392 18.432-49.152 33.792-19.456 51.2 19.456 51.2 49.152 33.792 59.392 18.432 55.296 6.144q59.392 0 109.568-22.528v307.2l-439.296-135.168v-405.504q0-28.672-19.456-51.2t-49.152-33.792-59.392-18.432-54.272-6.144-55.296 6.144-59.392 18.432-49.152 33.792-19.456 51.2 19.456 51.2 49.152 34.816 59.392 17.408 55.296 6.144q59.392 0 109.568-21.504v551.936q0 17.408 10.24 32.768t28.672 19.456l475.136 146.432q7.168 3.072 16.384 3.072 22.528 0 38.912-16.384t15.36-38.912z" />
<glyph unicode="&#xe81b;" glyph-name="plane" horiz-adv-x="804" d="M786.432 868.864q24.576-29.696 7.168-84.992t-62.464-98.304l-92.16-92.16 92.16-397.312q3.072-11.264-7.168-18.432l-72.704-55.296q-4.096-3.072-11.264-3.072-2.048 0-4.096 0-8.192 2.048-12.288 9.216l-158.72 290.816-148.48-148.48 30.72-110.592q3.072-10.24-5.12-18.432l-54.272-54.272q-5.12-5.12-13.312-5.12h-1.024q-9.216 1.024-14.336 7.168l-107.52 144.384-144.384 107.52q-6.144 4.096-7.168 13.312-1.024 7.168 5.12 14.336l55.296 55.296q5.12 5.12 12.288 5.12 4.096 0 5.12 0l110.592-30.72 148.48 148.48-290.816 158.72q-8.192 5.12-9.216 14.336t5.12 15.36l72.704 72.704q8.192 7.168 17.408 5.12l379.904-91.136 91.136 91.136q44.032 43.008 98.304 61.44t84.992-6.144z" />
<glyph unicode="&#xe81c;" glyph-name="pencil" horiz-adv-x="878" d="M207.872 82.432l51.2 52.224-134.144 134.144-52.224-52.224v-61.44h73.728v-72.704h61.44zM505.856 612.864q0 12.288-12.288 12.288-5.12 0-9.216-4.096l-310.272-309.248q-4.096-4.096-4.096-10.24 0-12.288 13.312-12.288 5.12 0 9.216 4.096l310.272 309.248q3.072 4.096 3.072 10.24zM475.136 722.432l237.568-237.568-475.136-476.16h-237.568v238.592zM865.28 667.136q0-29.696-20.48-51.2l-95.232-95.232-237.568 238.592 95.232 94.208q20.48 21.504 51.2 21.504 29.696 0 52.224-21.504l134.144-134.144q20.48-22.528 20.48-52.224z" />
<glyph unicode="&#xe81d;" glyph-name="puzzle-piece" horiz-adv-x="950" d="M951.296 332.288q0-46.080-25.6-76.8t-70.656-30.72q-23.552 0-44.032 10.24t-33.792 21.504-32.768 21.504-39.936 10.24q-63.488 0-63.488-70.656 0-22.528 9.216-66.56t8.192-65.536v-3.072q-12.288 0-18.432 0-19.456-2.048-55.296-7.168t-66.56-7.168-56.32-3.072q-34.816 0-58.368 15.36t-23.552 48.128q0 20.48 9.216 39.936t22.528 32.768 21.504 33.792 9.216 44.032q0 45.056-30.72 70.656t-76.8 25.6q-48.128 0-81.92-26.624t-33.792-72.704q0-24.576 9.216-47.104t18.432-36.864 19.456-30.72 8.192-28.672q0-25.6-25.6-51.2-21.504-19.456-67.584-19.456-54.272 0-139.264 13.312-5.12 1.024-16.384 2.048t-15.36 3.072l-7.168 1.024q-1.024 0-2.048 0t-1.024 1.024v584.704q1.024 0 10.24-2.048t19.456-2.048 12.288-2.048q84.992-14.336 139.264-14.336 46.080 0 67.584 20.48 25.6 24.576 25.6 50.176 0 13.312-8.192 29.696t-19.456 29.696-18.432 36.864-9.216 47.104q0 47.104 33.792 73.728t82.944 25.6q45.056 0 75.776-25.6t30.72-70.656q0-23.552-9.216-44.032t-21.504-33.792-22.528-31.744-9.216-40.96q0-32.768 23.552-48.128t58.368-14.336q36.864 0 103.424 8.192t93.184 9.216v-1.024q-1.024-1.024-2.048-9.216t-3.072-19.456-2.048-12.288q-13.312-86.016-13.312-140.288 0-46.080 19.456-66.56 25.6-26.624 51.2-26.624 12.288 0 28.672 8.192t30.72 19.456 36.864 19.456 47.104 8.192q47.104 0 72.704-33.792t26.624-81.92z" />
<glyph unicode="&#xe81e;" glyph-name="lightbulb" horiz-adv-x="585" d="M420.864 631.296q0-8.192-6.144-13.312t-12.288-5.12-13.312 5.12-5.12 13.312q0 25.6-30.72 39.936t-60.416 14.336q-8.192 0-13.312 5.12t-5.12 13.312 5.12 13.312 13.312 5.12q28.672 0 56.32-9.216t50.176-30.72 21.504-51.2zM512 631.296q0 40.96-19.456 75.776t-51.2 58.368-70.656 35.84-77.824 12.288-77.824-12.288-70.656-35.84-51.2-58.368-20.48-75.776q0-58.368 38.912-103.424 6.144-6.144 17.408-18.432t17.408-19.456q73.728-87.040 80.896-169.984h130.048q8.192 82.944 80.896 169.984 6.144 6.144 17.408 19.456t17.408 18.432q38.912 45.056 38.912 103.424zM584.704 631.296q0-89.088-58.368-153.6-25.6-27.648-43.008-50.176t-33.792-54.272-19.456-61.44q26.624-15.36 26.624-47.104 0-20.48-14.336-35.84 14.336-15.36 14.336-36.864 0-29.696-25.6-46.080 8.192-13.312 8.192-26.624 0-26.624-18.432-40.96t-44.032-14.336q-11.264-25.6-34.816-39.936t-49.152-15.36-50.176 15.36-33.792 39.936q-26.624 0-45.056 14.336t-17.408 40.96q0 13.312 7.168 26.624-25.6 16.384-25.6 46.080 0 21.504 14.336 36.864-14.336 15.36-14.336 35.84 0 31.744 26.624 47.104-2.048 28.672-19.456 61.44t-33.792 54.272-41.984 50.176q-59.392 64.512-59.392 153.6 0 56.32 25.6 105.472t66.56 80.896 94.208 50.176 106.496 19.456 106.496-19.456 93.184-50.176 67.584-80.896 24.576-105.472z" />
<glyph unicode="&#xe81f;" glyph-name="beer" horiz-adv-x="950" d="M365.568 448v219.136h-146.432v-146.432q0-29.696 21.504-51.2t52.224-21.504h72.704zM951.296 192v-109.568h-658.432v109.568l72.704 109.568h-72.704q-91.136 0-155.648 64.512t-64.512 154.624v183.296l-35.84 36.864 18.432 72.704h273.408l18.432 73.728h548.864l18.432-110.592-36.864-17.408v-457.728z" />
<glyph unicode="&#xe820;" glyph-name="food" horiz-adv-x="804" d="M365.568 923.136v-365.568q0-34.816-20.48-63.488t-52.224-39.936v-445.44q0-29.696-21.504-51.2t-52.224-21.504h-72.704q-29.696 0-51.2 21.504t-22.528 51.2v445.44q-31.744 11.264-52.224 39.936t-20.48 63.488v365.568q0 15.36 11.264 25.6t25.6 11.264 25.6-11.264 10.24-25.6v-237.568q0-14.336 11.264-25.6t25.6-11.264 25.6 11.264 11.264 25.6v237.568q0 15.36 10.24 25.6t26.624 11.264 25.6-11.264 10.24-25.6v-237.568q0-14.336 11.264-25.6t25.6-11.264 25.6 11.264 11.264 25.6v237.568q0 15.36 10.24 25.6t25.6 11.264 26.624-11.264 10.24-25.6zM804.864 923.136v-914.432q0-29.696-21.504-51.2t-52.224-21.504h-72.704q-29.696 0-51.2 21.504t-22.528 51.2v292.864h-128q-7.168 0-12.288 5.12t-5.12 13.312v456.704q0 75.776 53.248 130.048t129.024 53.248h146.432q15.36 0 25.6-11.264t11.264-25.6z" />
<glyph unicode="&#xe821;" glyph-name="coffee" horiz-adv-x="1097" d="M951.296 594.432q0 46.080-32.768 77.824t-77.824 31.744h-35.84v-219.136h35.84q46.080 0 77.824 31.744t32.768 77.824zM0 155.136h1024q0-60.416-43.008-103.424t-103.424-43.008h-731.136q-60.416 0-103.424 43.008t-43.008 103.424zM1060.864 594.432q0-91.136-64.512-155.648t-155.648-63.488h-35.84v-18.432q0-53.248-37.888-90.112t-90.112-37.888h-402.432q-52.224 0-90.112 37.888t-37.888 90.112v419.84q0 15.36 11.264 26.624t25.6 10.24h657.408q91.136 0 155.648-64.512t64.512-154.624z" />
<glyph unicode="&#xe822;" glyph-name="anchor" d="M548.864 813.568q0 15.36-11.264 25.6t-25.6 11.264-25.6-11.264-11.264-25.6 11.264-25.6 25.6-11.264 25.6 11.264 11.264 25.6zM1024 283.136v-200.704q0-12.288-11.264-17.408-5.12-1.024-7.168-1.024-7.168 0-13.312 5.12l-53.248 53.248q-67.584-81.92-181.248-130.048t-245.76-47.104-245.76 47.104-181.248 130.048l-53.248-53.248q-5.12-5.12-13.312-5.12-2.048 0-7.168 1.024-11.264 5.12-11.264 17.408v200.704q0 8.192 5.12 13.312t13.312 5.12h200.704q13.312 0 17.408-11.264 5.12-11.264-4.096-20.48l-57.344-56.32q38.912-52.224 108.544-88.064t155.648-47.104v369.664h-110.592q-14.336 0-25.6 11.264t-10.24 25.6v72.704q0 15.36 10.24 25.6t25.6 11.264h110.592v93.184q-33.792 19.456-53.248 52.224t-20.48 73.728q0 60.416 43.008 103.424t103.424 43.008 103.424-43.008 43.008-103.424q0-39.936-20.48-73.728t-53.248-52.224v-93.184h110.592q14.336 0 25.6-11.264t10.24-25.6v-72.704q0-15.36-10.24-25.6t-25.6-11.264h-110.592v-369.664q86.016 11.264 155.648 47.104t108.544 88.064l-57.344 56.32q-8.192 9.216-4.096 20.48t17.408 11.264h200.704q8.192 0 13.312-5.12t5.12-13.312z" />
<glyph unicode="&#xe823;" glyph-name="cloud" horiz-adv-x="1097" d="M1096.704 301.568q0-91.136-63.488-154.624t-155.648-64.512h-621.568q-105.472 0-181.248 74.752t-74.752 181.248q0 75.776 40.96 138.24t106.496 93.184q-1.024 15.36-1.024 24.576 0 120.832 86.016 206.848t206.848 86.016q90.112 0 162.816-51.2t107.52-131.072q39.936 35.84 95.232 35.84 60.416 0 103.424-43.008t43.008-103.424q0-43.008-23.552-78.848 73.728-17.408 121.856-76.8t47.104-137.216z" />
<glyph unicode="&#xe824;" glyph-name="compass" horiz-adv-x="878" d="M365.568 338.432l146.432 72.704-146.432 73.728v-146.432zM584.704 676.352v-310.272l-291.84-146.432v310.272zM749.568 448q0 84.992-41.984 155.648t-112.64 113.664-155.648 41.984-156.672-41.984-112.64-113.664-41.984-155.648 41.984-155.648 112.64-113.664 156.672-41.984 155.648 41.984 112.64 113.664 41.984 155.648zM877.568 448q0-119.808-58.368-220.16t-159.744-159.744-220.16-59.392-221.184 59.392-158.72 159.744-59.392 220.16 59.392 220.16 158.72 159.744 221.184 59.392 220.16-59.392 159.744-159.744 58.368-220.16z" />
<glyph unicode="&#xe825;" glyph-name="key" d="M475.136 667.136q0 46.080-31.744 77.824t-77.824 31.744-77.824-31.744-31.744-77.824q0-23.552 11.264-47.104-23.552 11.264-48.128 11.264-45.056 0-77.824-32.768t-31.744-77.824 31.744-76.8 77.824-32.768 77.824 32.768 31.744 76.8q0 24.576-10.24 48.128 23.552-11.264 47.104-11.264 46.080 0 77.824 31.744t31.744 77.824zM961.536 264.704q0-9.216-27.648-36.864t-37.888-28.672q-5.12 0-16.384 9.216t-20.48 19.456-22.528 22.528-13.312 14.336l-55.296-54.272 125.952-125.952q15.36-15.36 15.36-38.912t-21.504-46.080-47.104-22.528q-22.528 0-38.912 16.384l-382.976 382.976q-100.352-74.752-208.896-74.752-93.184 0-151.552 58.368t-58.368 152.576q0 91.136 54.272 178.176t141.312 142.336 179.2 54.272q93.184 0 151.552-59.392t58.368-151.552q0-107.52-74.752-207.872l202.752-203.776 55.296 55.296q-2.048 2.048-15.36 14.336t-22.528 21.504-18.432 21.504-9.216 15.36q0 10.24 27.648 37.888t37.888 28.672q7.168 0 13.312-6.144 3.072-3.072 26.624-25.6t46.080-45.056 50.176-49.152 40.96-45.056 16.384-23.552z" />
<glyph unicode="&#xe826;" glyph-name="flag" d="M183.296 813.568q0-40.96-36.864-62.464v-723.968q0-7.168-5.12-12.288t-13.312-6.144h-36.864q-7.168 0-12.288 6.144t-6.144 12.288v723.968q-35.84 21.504-35.84 62.464 0 30.72 21.504 52.224t51.2 21.504 52.224-21.504 21.504-52.224zM1024 776.704v-435.2q0-14.336-7.168-22.528t-22.528-15.36q-122.88-66.56-210.944-66.56-34.816 0-70.656 12.288t-61.44 27.648-66.56 27.648-80.896 12.288q-109.568 0-265.216-82.944-10.24-5.12-19.456-5.12-14.336 0-25.6 10.24t-10.24 25.6v423.936q0 18.432 17.408 31.744 12.288 8.192 45.056 24.576 135.168 68.608 240.64 68.608 61.44 0 114.688-16.384t124.928-50.176q21.504-11.264 50.176-11.264 30.72 0 66.56 12.288t63.488 26.624 50.176 26.624 30.72 12.288q15.36 0 25.6-10.24t11.264-26.624z" />
<glyph unicode="&#xe827;" glyph-name="headphones" horiz-adv-x="950" d="M951.296 454.144q0-95.232-34.816-180.224l-11.264-27.648-105.472-18.432q-13.312-48.128-52.224-78.848t-89.088-29.696v-18.432q0-8.192-5.12-13.312t-13.312-5.12h-36.864q-8.192 0-13.312 5.12t-5.12 13.312v328.704q0 8.192 5.12 13.312t13.312 5.12h36.864q8.192 0 13.312-5.12t5.12-13.312v-18.432q39.936 0 73.728-20.48t53.248-54.272l38.912 7.168q16.384 54.272 16.384 110.592 0 83.968-50.176 158.72t-135.168 119.808-180.224 44.032-180.224-44.032-135.168-119.808-50.176-159.744q0-55.296 16.384-109.568l38.912-7.168q19.456 34.816 53.248 54.272t74.752 20.48v18.432q0 8.192 5.12 13.312t13.312 5.12h35.84q8.192 0 13.312-5.12t5.12-13.312v-328.704q0-8.192-5.12-13.312t-13.312-5.12h-35.84q-8.192 0-13.312 5.12t-5.12 13.312v18.432q-50.176 0-90.112 29.696t-51.2 78.848l-105.472 18.432-11.264 27.648q-34.816 84.992-34.816 179.2 0 87.040 37.888 166.912t102.4 138.24 152.576 93.184 182.272 34.816 183.296-34.816 151.552-93.184 102.4-138.24 38.912-166.912z" />
<glyph unicode="&#xe828;" glyph-name="gamepad" horiz-adv-x="1097" d="M475.136 338.432v72.704q0 8.192-5.12 13.312t-13.312 5.12h-109.568v109.568q0 8.192-5.12 13.312t-13.312 5.12h-72.704q-8.192 0-13.312-5.12t-5.12-13.312v-109.568h-109.568q-8.192 0-13.312-5.12t-5.12-13.312v-72.704q0-8.192 5.12-13.312t13.312-5.12h109.568v-109.568q0-8.192 5.12-13.312t13.312-5.12h72.704q8.192 0 13.312 5.12t5.12 13.312v109.568h109.568q8.192 0 13.312 5.12t5.12 13.312zM804.864 301.568q0 30.72-21.504 52.224t-52.224 21.504-51.2-21.504-21.504-52.224 21.504-51.2 51.2-21.504 52.224 21.504 21.504 51.2zM951.296 448q0 30.72-21.504 52.224t-52.224 20.48-51.2-20.48-21.504-52.224 21.504-51.2 51.2-21.504 52.224 21.504 21.504 51.2zM1096.704 375.296q0-121.856-84.992-206.848t-206.848-86.016q-109.568 0-193.536 72.704h-125.952q-82.944-72.704-192.512-72.704-121.856 0-206.848 86.016t-86.016 206.848 86.016 206.848 206.848 84.992h512q120.832 0 206.848-84.992t84.992-206.848z" />
<glyph unicode="&#xe829;" glyph-name="microphone" horiz-adv-x="657" d="M658.432 557.568v-72.704q0-126.976-83.968-220.16t-208.896-106.496v-75.776h146.432q15.36 0 25.6-11.264t11.264-25.6-11.264-25.6-25.6-11.264h-365.568q-15.36 0-25.6 11.264t-11.264 25.6 11.264 25.6 25.6 11.264h146.432v75.776q-123.904 13.312-208.896 106.496t-83.968 220.16v72.704q0 15.36 11.264 25.6t25.6 11.264 25.6-11.264 10.24-25.6v-72.704q0-106.496 75.776-181.248t180.224-74.752 181.248 74.752 74.752 181.248v72.704q0 15.36 11.264 25.6t25.6 11.264 25.6-11.264 11.264-25.6zM512 776.704v-291.84q0-75.776-53.248-129.024t-130.048-54.272-129.024 54.272-53.248 129.024v291.84q0 75.776 53.248 130.048t129.024 53.248 130.048-53.248 53.248-130.048z" />
<glyph unicode="&#xe82a;" glyph-name="rocket" horiz-adv-x="950" d="M823.296 704q0 22.528-16.384 38.912t-38.912 16.384-38.912-16.384-16.384-38.912 16.384-38.912 38.912-16.384 38.912 16.384 16.384 38.912zM951.296 868.864q0-142.336-44.032-246.784t-144.384-205.824q-46.080-45.056-111.616-100.352l-11.264-216.064q-1.024-9.216-9.216-15.36l-219.136-128q-4.096-2.048-9.216-2.048-7.168 0-13.312 5.12l-36.864 36.864q-7.168 7.168-4.096 17.408l48.128 158.72-159.744 159.744-158.72-48.128q-1.024-1.024-5.12-1.024-7.168 0-12.288 5.12l-36.864 36.864q-10.24 11.264-3.072 22.528l128 219.136q6.144 8.192 15.36 9.216l216.064 11.264q55.296 65.536 100.352 111.616 107.52 106.496 204.8 147.456t246.784 40.96q7.168 0 13.312-6.144t6.144-12.288z" />
<glyph unicode="&#xe82b;" glyph-name="truck" d="M365.568 155.136q0 29.696-21.504 52.224t-51.2 21.504-51.2-21.504-22.528-52.224 22.528-51.2 51.2-21.504 51.2 21.504 21.504 51.2zM146.432 448h219.136v146.432h-90.112q-7.168 0-12.288-5.12l-111.616-111.616q-5.12-5.12-5.12-12.288v-17.408zM877.568 155.136q0 29.696-21.504 52.224t-51.2 21.504-52.224-21.504-21.504-52.224 21.504-51.2 52.224-21.504 51.2 21.504 21.504 51.2zM1024 776.704v-584.704q0-8.192-2.048-15.36t-8.192-10.24-9.216-6.144-13.312-4.096-13.312-1.024-14.336 0-12.288 0q0-60.416-43.008-103.424t-103.424-43.008-103.424 43.008-43.008 103.424h-219.136q0-60.416-43.008-103.424t-103.424-43.008-103.424 43.008-43.008 103.424h-36.864q-1.024 0-12.288 0t-15.36 0-12.288 1.024-13.312 4.096-9.216 6.144-8.192 10.24-2.048 15.36q0 15.36 10.24 25.6t25.6 11.264v182.272q0 5.12 0 20.48t0 21.504 2.048 19.456 3.072 21.504 8.192 17.408 13.312 17.408l112.64 112.64q11.264 11.264 28.672 18.432t33.792 7.168h91.136v109.568q0 15.36 11.264 26.624t25.6 10.24h584.704q15.36 0 25.6-10.24t11.264-26.624z" />
<glyph unicode="&#xe82c;" glyph-name="cogs" horiz-adv-x="1097" d="M512 448q0 60.416-43.008 103.424t-103.424 43.008-103.424-43.008-43.008-103.424 43.008-103.424 103.424-43.008 103.424 43.008 43.008 103.424zM951.296 155.136q0 29.696-22.528 52.224t-51.2 21.504-51.2-21.504-21.504-52.224q0-29.696 21.504-51.2t51.2-21.504 52.224 21.504 21.504 51.2zM951.296 740.864q0 29.696-22.528 51.2t-51.2 21.504-51.2-21.504-21.504-51.2q0-30.72 21.504-52.224t51.2-21.504 52.224 21.504 21.504 52.224zM731.136 500.224v-105.472q0-6.144-4.096-11.264t-9.216-6.144l-88.064-14.336q-6.144-19.456-18.432-43.008 19.456-27.648 51.2-65.536 4.096-6.144 4.096-11.264 0-7.168-4.096-11.264-13.312-17.408-47.104-51.2t-45.056-33.792q-6.144 0-11.264 4.096l-65.536 51.2q-21.504-11.264-44.032-17.408-6.144-61.44-13.312-89.088-4.096-13.312-17.408-13.312h-106.496q-6.144 0-11.264 4.096t-5.12 10.24l-13.312 87.040q-19.456 6.144-43.008 18.432l-67.584-51.2q-4.096-4.096-11.264-4.096-6.144 0-12.288 4.096-81.92 76.8-81.92 92.16 0 5.12 4.096 10.24 5.12 8.192 23.552 30.72t26.624 34.816q-13.312 24.576-20.48 47.104l-87.040 13.312q-5.12 1.024-9.216 5.12t-4.096 11.264v105.472q0 6.144 4.096 11.264t9.216 6.144l88.064 14.336q7.168 19.456 18.432 43.008-19.456 27.648-51.2 65.536-4.096 6.144-4.096 11.264 0 7.168 4.096 11.264 12.288 17.408 47.104 51.2t45.056 33.792q6.144 0 12.288-4.096l65.536-51.2q19.456 10.24 44.032 18.432 6.144 61.44 13.312 88.064 3.072 13.312 16.384 13.312h106.496q6.144 0 11.264-4.096t6.144-10.24l13.312-87.040q19.456-6.144 41.984-17.408l67.584 50.176q5.12 4.096 11.264 4.096 7.168 0 12.288-4.096 82.944-76.8 82.944-92.16 0-5.12-4.096-10.24-7.168-9.216-24.576-30.72t-25.6-34.816q13.312-27.648 19.456-47.104l87.040-12.288q5.12-2.048 9.216-6.144t4.096-11.264zM1096.704 195.072v-79.872q0-9.216-84.992-17.408-6.144-15.36-16.384-29.696 28.672-64.512 28.672-78.848 0-2.048-2.048-4.096-69.632-40.96-70.656-40.96-5.12 0-26.624 27.648t-29.696 37.888q-11.264-1.024-17.408-1.024t-17.408 1.024q-7.168-11.264-29.696-37.888t-25.6-27.648q-1.024 0-70.656 40.96-3.072 2.048-3.072 4.096 0 14.336 29.696 78.848-10.24 14.336-17.408 29.696-84.992 8.192-84.992 17.408v79.872q0 9.216 84.992 18.432 7.168 16.384 17.408 29.696-29.696 64.512-29.696 78.848 0 2.048 3.072 4.096 2.048 1.024 19.456 11.264t33.792 19.456 17.408 9.216q4.096 0 25.6-26.624t29.696-38.912q12.288 1.024 17.408 1.024t17.408-1.024q28.672 40.96 52.224 64.512l4.096 1.024q2.048 0 70.656-39.936 2.048-2.048 2.048-4.096 0-14.336-28.672-78.848 9.216-13.312 16.384-29.696 84.992-9.216 84.992-18.432zM1096.704 780.8v-79.872q0-9.216-84.992-18.432-6.144-15.36-16.384-29.696 28.672-64.512 28.672-78.848 0-2.048-2.048-4.096-69.632-39.936-70.656-39.936-5.12 0-26.624 26.624t-29.696 38.912q-11.264-1.024-17.408-1.024t-17.408 1.024q-7.168-12.288-29.696-38.912t-25.6-26.624q-1.024 0-70.656 39.936-3.072 2.048-3.072 4.096 0 14.336 29.696 78.848-10.24 14.336-17.408 29.696-84.992 9.216-84.992 18.432v79.872q0 9.216 84.992 17.408 7.168 16.384 17.408 29.696-29.696 64.512-29.696 78.848 0 2.048 3.072 4.096 2.048 1.024 19.456 11.264t33.792 19.456 17.408 9.216q4.096 0 25.6-26.624t29.696-38.912q12.288 2.048 17.408 2.048t17.408-2.048q28.672 40.96 52.224 64.512l4.096 1.024q2.048 0 70.656-39.936 2.048-2.048 2.048-4.096 0-14.336-28.672-78.848 9.216-13.312 16.384-29.696 84.992-8.192 84.992-17.408z" />
<glyph unicode="&#xe82d;" glyph-name="wrench" horiz-adv-x="950" d="M219.136 119.296q0 14.336-10.24 25.6t-25.6 10.24-26.624-10.24-10.24-25.6 10.24-26.624 26.624-10.24 25.6 10.24 10.24 26.624zM587.776 358.912l-390.144-390.144q-21.504-20.48-51.2-20.48t-52.224 20.48l-60.416 62.464q-21.504 20.48-21.504 51.2 0 29.696 21.504 52.224l389.12 389.12q22.528-56.32 65.536-99.328t99.328-65.536zM949.248 607.744q0-22.528-12.288-60.416-27.648-76.8-94.208-124.928t-147.456-47.104q-106.496 0-181.248 74.752t-74.752 181.248 74.752 180.224 181.248 75.776q32.768 0 68.608-10.24t61.44-26.624q9.216-6.144 9.216-15.36t-9.216-16.384l-166.912-96.256v-128l110.592-61.44q2.048 2.048 45.056 27.648t76.8 46.080 40.96 20.48q8.192 0 13.312-5.12t4.096-14.336z" />
<glyph unicode="&#xe82e;" glyph-name="laptop" horiz-adv-x="1097" d="M237.568 228.864q-37.888 0-64.512 26.624t-26.624 64.512v402.432q0 37.888 26.624 64.512t64.512 26.624h621.568q37.888 0 64.512-26.624t27.648-64.512v-402.432q0-37.888-27.648-64.512t-64.512-26.624h-621.568zM219.136 722.432v-402.432q0-7.168 6.144-13.312t12.288-5.12h621.568q8.192 0 13.312 5.12t5.12 13.312v402.432q0 7.168-5.12 12.288t-13.312 6.144h-621.568q-7.168 0-12.288-6.144t-6.144-12.288zM1005.568 192h91.136v-55.296q0-22.528-26.624-37.888t-64.512-16.384h-914.432q-36.864 0-64.512 16.384t-26.624 37.888v55.296h1005.568zM593.92 136.704q9.216 0 9.216 9.216t-9.216 9.216h-91.136q-9.216 0-9.216-9.216t9.216-9.216h91.136z" />
<glyph unicode="&#xe82f;" glyph-name="suitcase" d="M365.568 740.864h292.864v72.704h-292.864v-72.704zM164.864 740.864v-732.16h-36.864q-52.224 0-90.112 37.888t-37.888 90.112v476.16q0 52.224 37.888 90.112t90.112 37.888h36.864zM804.864 740.864v-732.16h-585.728v732.16h73.728v91.136q0 22.528 15.36 38.912t38.912 16.384h329.728q22.528 0 38.912-16.384t15.36-38.912v-91.136h73.728zM1024 612.864v-476.16q0-52.224-37.888-90.112t-90.112-37.888h-36.864v732.16h36.864q52.224 0 90.112-37.888t37.888-90.112z" />
<glyph unicode="&#xe830;" glyph-name="paper-clip" horiz-adv-x="804" d="M801.792 168.448q0-66.56-45.056-111.616t-111.616-45.056q-76.8 0-134.144 56.32l-444.416 444.416q-64.512 65.536-64.512 154.624 0 90.112 63.488 153.6t153.6 63.488 155.648-64.512l346.112-346.112q5.12-5.12 5.12-12.288 0-9.216-17.408-26.624t-26.624-17.408q-7.168 0-13.312 5.12l-346.112 347.136q-45.056 44.032-103.424 44.032-60.416 0-102.4-43.008t-40.96-103.424q0-59.392 43.008-103.424l443.392-443.392q35.84-35.84 82.944-35.84 36.864 0 60.416 23.552t24.576 60.416q0 47.104-36.864 82.944l-331.776 331.776q-14.336 14.336-33.792 14.336-16.384 0-27.648-11.264t-11.264-27.648q0-18.432 14.336-33.792l234.496-233.472q6.144-6.144 6.144-13.312 0-9.216-18.432-26.624t-26.624-17.408q-7.168 0-12.288 5.12l-234.496 234.496q-35.84 34.816-35.84 84.992 0 47.104 32.768 79.872t78.848 32.768q50.176 0 84.992-36.864l332.8-331.776q56.32-55.296 56.32-134.144z" />
<glyph unicode="&#xe831;" glyph-name="moon" horiz-adv-x="878" d="M720.896 215.552q-30.72-5.12-62.464-5.12-104.448 0-192.512 51.2t-140.288 140.288-51.2 192.512q0 109.568 59.392 203.776-114.688-33.792-187.392-131.072t-73.728-219.136q0-74.752 29.696-142.336t77.824-115.712 116.736-78.848 142.336-28.672q81.92 0 155.648 34.816t125.952 98.304zM837.632 263.68q-54.272-115.712-162.816-185.344t-235.52-69.632q-89.088 0-171.008 34.816t-139.264 94.208-94.208 140.288-34.816 169.984q0 87.040 32.768 166.912t89.088 138.24 135.168 94.208 164.864 38.912q25.6 1.024 34.816-22.528 10.24-23.552-8.192-40.96-49.152-44.032-74.752-103.424t-26.624-124.928q0-84.992 41.984-155.648t113.664-113.664 155.648-41.984q67.584 0 130.048 29.696 23.552 10.24 40.96-7.168 8.192-8.192 10.24-19.456t-2.048-22.528z" />
<glyph unicode="&#xe832;" glyph-name="star" horiz-adv-x="950" d="M951.296 590.336q0-12.288-15.36-27.648l-207.872-201.728 49.152-285.696q1.024-4.096 1.024-12.288 0-11.264-6.144-19.456t-17.408-9.216q-10.24 0-22.528 7.168l-257.024 135.168-256-135.168q-13.312-7.168-23.552-7.168-11.264 0-17.408 9.216t-6.144 19.456q0 4.096 1.024 12.288l49.152 285.696-207.872 201.728q-14.336 15.36-14.336 27.648 0 21.504 31.744 26.624l286.72 40.96 129.024 260.096q11.264 23.552 27.648 23.552t28.672-23.552l128-260.096 286.72-40.96q32.768-5.12 32.768-26.624z" />
<glyph unicode="&#xe833;" glyph-name="signal" d="M146.432 136.704v-109.568q0-8.192-5.12-13.312t-13.312-5.12h-109.568q-8.192 0-13.312 5.12t-5.12 13.312v109.568q0 8.192 5.12 13.312t13.312 5.12h109.568q8.192 0 13.312-5.12t5.12-13.312zM365.568 210.432v-183.296q0-8.192-5.12-13.312t-13.312-5.12h-109.568q-8.192 0-13.312 5.12t-5.12 13.312v183.296q0 8.192 5.12 13.312t13.312 5.12h109.568q8.192 0 13.312-5.12t5.12-13.312zM584.704 356.864v-329.728q0-8.192-5.12-13.312t-12.288-5.12h-110.592q-7.168 0-12.288 5.12t-5.12 13.312v329.728q0 8.192 5.12 13.312t12.288 5.12h110.592q7.168 0 12.288-5.12t5.12-13.312zM804.864 576v-548.864q0-8.192-5.12-13.312t-13.312-5.12h-109.568q-8.192 0-13.312 5.12t-5.12 13.312v548.864q0 8.192 5.12 13.312t13.312 5.12h109.568q8.192 0 13.312-5.12t5.12-13.312zM1024 868.864v-841.728q0-8.192-5.12-13.312t-13.312-5.12h-109.568q-8.192 0-13.312 5.12t-5.12 13.312v841.728q0 8.192 5.12 13.312t13.312 5.12h109.568q8.192 0 13.312-5.12t5.12-13.312z" />
<glyph unicode="&#xe834;" glyph-name="screenshot" horiz-adv-x="878" d="M684.032 375.296h-62.464q-14.336 0-25.6 10.24t-11.264 25.6v73.728q0 14.336 11.264 25.6t25.6 10.24h62.464q-18.432 62.464-64.512 108.544t-107.52 63.488v-61.44q0-15.36-11.264-26.624t-25.6-10.24h-72.704q-15.36 0-25.6 10.24t-11.264 26.624v61.44q-61.44-17.408-107.52-63.488t-64.512-108.544h62.464q15.36 0 25.6-10.24t11.264-25.6v-73.728q0-14.336-11.264-25.6t-25.6-11.264h-62.464q18.432-61.44 64.512-107.52t107.52-63.488v61.44q0 15.36 11.264 25.6t25.6 11.264h72.704q15.36 0 25.6-11.264t11.264-25.6v-61.44q61.44 17.408 107.52 63.488t64.512 107.52zM877.568 484.864v-73.728q0-14.336-10.24-25.6t-26.624-10.24h-80.896q-21.504-92.16-89.088-159.744t-158.72-88.064v-81.92q0-14.336-11.264-25.6t-25.6-11.264h-72.704q-15.36 0-25.6 11.264t-11.264 25.6v81.92q-92.16 21.504-158.72 88.064t-88.064 159.744h-81.92q-15.36 0-25.6 10.24t-11.264 25.6v73.728q0 14.336 11.264 25.6t25.6 10.24h81.92q20.48 92.16 88.064 159.744t158.72 88.064v81.92q0 14.336 11.264 25.6t25.6 11.264h72.704q15.36 0 25.6-11.264t11.264-25.6v-81.92q92.16-21.504 158.72-88.064t89.088-159.744h80.896q15.36 0 26.624-10.24t10.24-25.6z" />
<glyph unicode="&#xe835;" glyph-name="ok" d="M954.368 636.416q0-22.528-15.36-38.912l-491.52-491.52q-16.384-15.36-38.912-15.36t-38.912 15.36l-284.672 284.672q-15.36 16.384-15.36 38.912t15.36 38.912l77.824 77.824q16.384 16.384 38.912 16.384t38.912-16.384l167.936-168.96 374.784 375.808q16.384 16.384 38.912 16.384t38.912-16.384l77.824-77.824q15.36-16.384 15.36-38.912z" />
<glyph unicode="&#xe836;" glyph-name="bug" horiz-adv-x="950" d="M932.864 411.136q0-14.336-11.264-25.6t-25.6-10.24h-128q0-98.304-37.888-165.888l118.784-119.808q10.24-11.264 10.24-25.6t-10.24-25.6-25.6-11.264-26.624 11.264l-112.64 112.64q-3.072-3.072-8.192-7.168t-24.576-16.384-36.864-21.504-47.104-16.384-55.296-7.168v512h-72.704v-512q-29.696 0-58.368 7.168t-50.176 19.456-36.864 22.528-25.6 18.432l-8.192 8.192-104.448-118.784q-11.264-12.288-27.648-12.288-13.312 0-24.576 9.216-11.264 10.24-11.264 25.6t8.192 26.624l115.712 130.048q-32.768 64.512-32.768 156.672h-128q-15.36 0-25.6 10.24t-11.264 25.6 11.264 25.6 25.6 11.264h128v167.936l-99.328 99.328q-11.264 10.24-11.264 25.6t11.264 25.6 25.6 10.24 25.6-10.24l99.328-99.328h482.304l98.304 99.328q11.264 10.24 25.6 10.24t26.624-10.24 10.24-25.6-10.24-25.6l-99.328-99.328v-167.936h128q15.36 0 25.6-11.264t11.264-25.6zM658.432 740.864h-365.568q0 75.776 53.248 129.024t129.024 53.248 130.048-53.248 53.248-129.024z" />
<glyph unicode="&#xe837;" glyph-name="smile" horiz-adv-x="878" d="M648.192 345.6q-21.504-68.608-78.848-111.616t-130.048-41.984-131.072 41.984-78.848 111.616q-4.096 14.336 3.072 27.648t21.504 18.432q14.336 4.096 27.648-2.048t17.408-22.528q14.336-45.056 53.248-73.728t87.040-28.672 86.016 28.672 53.248 73.728q4.096 15.36 18.432 22.528t27.648 2.048 21.504-18.432 2.048-27.648zM365.568 594.432q0-30.72-21.504-52.224t-51.2-21.504-52.224 21.504-21.504 52.224 21.504 51.2 52.224 21.504 51.2-21.504 21.504-51.2zM658.432 594.432q0-30.72-21.504-52.224t-52.224-21.504-51.2 21.504-21.504 52.224 21.504 51.2 51.2 21.504 52.224-21.504 21.504-51.2zM804.864 448q0 74.752-29.696 142.336t-77.824 116.736-116.736 77.824-141.312 28.672-142.336-28.672-116.736-77.824-77.824-116.736-29.696-142.336 29.696-142.336 77.824-115.712 116.736-78.848 142.336-28.672 141.312 28.672 116.736 78.848 77.824 115.712 29.696 142.336zM877.568 448q0-119.808-58.368-220.16t-159.744-159.744-220.16-59.392-221.184 59.392-158.72 159.744-59.392 220.16 59.392 220.16 158.72 159.744 221.184 59.392 220.16-59.392 159.744-159.744 58.368-220.16z" />
<glyph unicode="&#xe838;" glyph-name="shield" horiz-adv-x="731" d="M621.568 411.136v365.568h-256v-649.216q68.608 35.84 121.856 77.824 134.144 105.472 134.144 205.824zM731.136 850.432v-439.296q0-49.152-18.432-97.28t-48.128-86.016-67.584-72.704-71.68-58.368-69.632-44.032-51.2-28.672-23.552-11.264q-7.168-4.096-15.36-4.096t-14.336 4.096q-9.216 4.096-24.576 11.264t-51.2 28.672-69.632 44.032-71.68 58.368-67.584 72.704-47.104 86.016-19.456 97.28v439.296q0 14.336 11.264 25.6t25.6 11.264h658.432q14.336 0 25.6-11.264t10.24-25.6z" />
<glyph unicode="&#xe839;" glyph-name="film" horiz-adv-x="1097" d="M219.136 45.568v73.728q0 14.336-10.24 25.6t-25.6 10.24h-73.728q-14.336 0-25.6-10.24t-11.264-25.6v-73.728q0-14.336 11.264-25.6t25.6-11.264h73.728q14.336 0 25.6 11.264t10.24 25.6zM219.136 264.704v73.728q0 14.336-10.24 25.6t-25.6 11.264h-73.728q-14.336 0-25.6-11.264t-11.264-25.6v-73.728q0-14.336 11.264-25.6t25.6-10.24h73.728q14.336 0 25.6 10.24t10.24 25.6zM219.136 484.864v72.704q0 15.36-10.24 25.6t-25.6 11.264h-73.728q-14.336 0-25.6-11.264t-11.264-25.6v-72.704q0-15.36 11.264-25.6t25.6-11.264h73.728q14.336 0 25.6 11.264t10.24 25.6zM804.864 45.568v292.864q0 14.336-11.264 25.6t-25.6 11.264h-439.296q-14.336 0-25.6-11.264t-10.24-25.6v-292.864q0-14.336 10.24-25.6t25.6-11.264h439.296q15.36 0 25.6 11.264t11.264 25.6zM219.136 704v72.704q0 15.36-10.24 26.624t-25.6 10.24h-73.728q-14.336 0-25.6-10.24t-11.264-26.624v-72.704q0-15.36 11.264-25.6t25.6-11.264h73.728q14.336 0 25.6 11.264t10.24 25.6zM1024 45.568v73.728q0 14.336-11.264 25.6t-25.6 10.24h-72.704q-15.36 0-25.6-10.24t-11.264-25.6v-73.728q0-14.336 11.264-25.6t25.6-11.264h72.704q15.36 0 25.6 11.264t11.264 25.6zM804.864 484.864v291.84q0 15.36-11.264 26.624t-25.6 10.24h-439.296q-14.336 0-25.6-10.24t-10.24-26.624v-291.84q0-15.36 10.24-25.6t25.6-11.264h439.296q15.36 0 25.6 11.264t11.264 25.6zM1024 264.704v73.728q0 14.336-11.264 25.6t-25.6 11.264h-72.704q-15.36 0-25.6-11.264t-11.264-25.6v-73.728q0-14.336 11.264-25.6t25.6-10.24h72.704q15.36 0 25.6 10.24t11.264 25.6zM1024 484.864v72.704q0 15.36-11.264 25.6t-25.6 11.264h-72.704q-15.36 0-25.6-11.264t-11.264-25.6v-72.704q0-15.36 11.264-25.6t25.6-11.264h72.704q15.36 0 25.6 11.264t11.264 25.6zM1024 704v72.704q0 15.36-11.264 26.624t-25.6 10.24h-72.704q-15.36 0-25.6-10.24t-11.264-26.624v-72.704q0-15.36 11.264-25.6t25.6-11.264h72.704q15.36 0 25.6 11.264t11.264 25.6zM1096.704 795.136v-768q0-37.888-26.624-64.512t-64.512-26.624h-914.432q-36.864 0-64.512 26.624t-26.624 64.512v768q0 37.888 26.624 64.512t64.512 27.648h914.432q37.888 0 64.512-27.648t26.624-64.512z" />
<glyph unicode="&#xe83a;" glyph-name="ok-sign" horiz-adv-x="878" d="M734.208 540.16q0 16.384-11.264 26.624l-51.2 51.2q-11.264 11.264-25.6 11.264t-26.624-11.264l-232.448-232.448-129.024 129.024q-11.264 11.264-25.6 11.264t-26.624-11.264l-51.2-51.2q-10.24-10.24-10.24-26.624 0-15.36 10.24-25.6l206.848-206.848q10.24-10.24 25.6-10.24t25.6 10.24l310.272 310.272q11.264 10.24 11.264 25.6zM877.568 448q0-119.808-58.368-220.16t-159.744-159.744-220.16-59.392-221.184 59.392-158.72 159.744-59.392 220.16 59.392 220.16 158.72 159.744 221.184 59.392 220.16-59.392 159.744-159.744 58.368-220.16z" />
<glyph unicode="&#xe83b;" glyph-name="google-plus-sign" horiz-adv-x="878" d="M474.112 263.68q0-43.008-33.792-63.488t-79.872-21.504q-23.552 0-46.080 6.144t-43.008 15.36-32.768 30.72-13.312 45.056q0 25.6 14.336 45.056t37.888 29.696 47.104 14.336 48.128 4.096q11.264 0 17.408-1.024 1.024-1.024 13.312-9.216t15.36-11.264 12.288-10.24 14.336-12.288 11.264-13.312 9.216-14.336 5.12-15.36 3.072-18.432zM431.104 574.976q0-33.792-18.432-56.32t-52.224-22.528q-30.72 0-53.248 24.576t-32.768 54.272-10.24 61.44q0 34.816 18.432 59.392t52.224 24.576q30.72 0 53.248-25.6t33.792-58.368 9.216-61.44zM491.52 722.432l51.2 36.864h-151.552q-49.152 0-92.16-18.432t-72.704-56.32-29.696-87.040q0-53.248 36.864-89.088t90.112-34.816q13.312 0 24.576 2.048-7.168-16.384-7.168-30.72 0-25.6 22.528-54.272-99.328-6.144-146.432-35.84-26.624-16.384-43.008-41.984t-16.384-54.272q0-24.576 10.24-44.032t27.648-31.744 39.936-21.504 44.032-12.288 44.032-3.072q33.792 0 68.608 8.192t64.512 26.624 49.152 47.104 19.456 66.56q0 28.672-11.264 51.2t-28.672 38.912-32.768 26.624-27.648 25.6-12.288 24.576 9.216 24.576 21.504 22.528 25.6 24.576 21.504 33.792 8.192 47.104q0 33.792-12.288 56.32t-41.984 52.224h47.104zM658.432 466.432h72.704v35.84h-72.704v73.728h-36.864v-73.728h-72.704v-35.84h72.704v-92.16h36.864v92.16zM877.568 722.432v-548.864q0-67.584-48.128-115.712t-116.736-49.152h-547.84q-68.608 0-116.736 49.152t-48.128 115.712v548.864q0 67.584 48.128 115.712t116.736 49.152h547.84q68.608 0 116.736-49.152t48.128-115.712z" />
<glyph unicode="&#xe83c;" glyph-name="facebook-sign" horiz-adv-x="878" d="M712.704 887.296q68.608 0 116.736-49.152t48.128-115.712v-548.864q0-67.584-48.128-115.712t-116.736-49.152h-106.496v339.968h113.664l16.384 133.12h-130.048v84.992q0 31.744 13.312 47.104t52.224 16.384l69.632 1.024v117.76q-35.84 5.12-102.4 5.12-76.8 0-123.904-46.080t-46.080-129.024v-97.28h-114.688v-133.12h114.688v-339.968h-304.128q-68.608 0-116.736 49.152t-48.128 115.712v548.864q0 67.584 48.128 115.712t116.736 49.152h547.84z" />
<glyph unicode="&#xe83d;" glyph-name="twitter-sign" horiz-adv-x="878" d="M731.136 611.84q-31.744-14.336-68.608-19.456 38.912 22.528 53.248 66.56-37.888-21.504-76.8-29.696-34.816 37.888-87.040 37.888-50.176 0-84.992-34.816t-35.84-84.992q0-16.384 3.072-27.648-73.728 4.096-138.24 37.888t-109.568 88.064q-16.384-28.672-16.384-60.416 0-65.536 52.224-100.352-27.648 1.024-57.344 15.36v-1.024q0-43.008 28.672-76.8t69.632-40.96q-16.384-5.12-28.672-5.12-7.168 0-22.528 2.048 12.288-35.84 43.008-59.392t68.608-23.552q-65.536-51.2-148.48-51.2-15.36 0-28.672 1.024 83.968-53.248 184.32-53.248 63.488 0 119.808 20.48t95.232 54.272 69.632 77.824 43.008 93.184 13.312 96.256q0 10.24 0 15.36 35.84 25.6 59.392 62.464zM877.568 722.432v-548.864q0-67.584-48.128-115.712t-116.736-49.152h-547.84q-68.608 0-116.736 49.152t-48.128 115.712v548.864q0 67.584 48.128 115.712t116.736 49.152h547.84q68.608 0 116.736-49.152t48.128-115.712z" />
<glyph unicode="&#xe83e;" glyph-name="exclamation-sign" d="M584.704 174.592v108.544q0 8.192-5.12 13.312t-12.288 5.12h-110.592q-7.168 0-12.288-5.12t-5.12-13.312v-108.544q0-8.192 5.12-13.312t12.288-6.144h110.592q7.168 0 12.288 6.144t5.12 13.312zM583.68 387.584l10.24 263.168q0 6.144-5.12 10.24-7.168 6.144-14.336 6.144h-124.928q-7.168 0-14.336-6.144-5.12-4.096-5.12-12.288l9.216-261.12q0-5.12 6.144-9.216t13.312-3.072h105.472q8.192 0 13.312 3.072t6.144 9.216zM576.512 922.112l438.272-804.864q20.48-35.84-1.024-71.68-10.24-17.408-26.624-26.624t-35.84-10.24h-878.592q-18.432 0-35.84 10.24t-26.624 26.624q-21.504 35.84-1.024 71.68l439.296 804.864q9.216 17.408 26.624 27.648t36.864 10.24 36.864-10.24 27.648-27.648z" />
<glyph unicode="&#xe83f;" glyph-name="info-sign" horiz-adv-x="878" d="M584.704 173.568v91.136q0 8.192-5.12 13.312t-12.288 5.12h-55.296v292.864q0 8.192-5.12 13.312t-13.312 5.12h-182.272q-8.192 0-13.312-5.12t-5.12-13.312v-91.136q0-8.192 5.12-13.312t13.312-5.12h54.272v-183.296h-54.272q-8.192 0-13.312-5.12t-5.12-13.312v-91.136q0-8.192 5.12-13.312t13.312-5.12h256q7.168 0 12.288 5.12t5.12 13.312zM512 685.568v91.136q0 8.192-5.12 13.312t-13.312 5.12h-109.568q-8.192 0-13.312-5.12t-5.12-13.312v-91.136q0-8.192 5.12-13.312t13.312-5.12h109.568q8.192 0 13.312 5.12t5.12 13.312zM877.568 448q0-119.808-58.368-220.16t-159.744-159.744-220.16-59.392-221.184 59.392-158.72 159.744-59.392 220.16 59.392 220.16 158.72 159.744 221.184 59.392 220.16-59.392 159.744-159.744 58.368-220.16z" />
<glyph unicode="&#xe840;" glyph-name="quote-left" horiz-adv-x="950" d="M439.296 411.136v-219.136q0-46.080-32.768-77.824t-77.824-31.744h-219.136q-45.056 0-77.824 31.744t-31.744 77.824v402.432q0 59.392 23.552 113.664t62.464 93.184 93.184 62.464 113.664 23.552h35.84q15.36 0 26.624-11.264t10.24-25.6v-73.728q0-14.336-10.24-25.6t-26.624-10.24h-35.84q-60.416 0-103.424-43.008t-43.008-103.424v-18.432q0-22.528 16.384-38.912t37.888-16.384h128q46.080 0 77.824-31.744t32.768-77.824zM951.296 411.136v-219.136q0-46.080-32.768-77.824t-77.824-31.744h-219.136q-45.056 0-77.824 31.744t-31.744 77.824v402.432q0 59.392 23.552 113.664t62.464 93.184 93.184 62.464 113.664 23.552h35.84q15.36 0 26.624-11.264t10.24-25.6v-73.728q0-14.336-10.24-25.6t-26.624-10.24h-35.84q-60.416 0-103.424-43.008t-43.008-103.424v-18.432q0-22.528 15.36-38.912t38.912-16.384h128q46.080 0 77.824-31.744t32.768-77.824z" />
<glyph unicode="&#xe841;" glyph-name="link" horiz-adv-x="950" d="M831.488 264.704q0 23.552-15.36 38.912l-118.784 118.784q-16.384 16.384-38.912 16.384-24.576 0-40.96-18.432 1.024-1.024 10.24-10.24t12.288-12.288 9.216-11.264 7.168-14.336 2.048-15.36q0-23.552-16.384-38.912t-38.912-16.384q-8.192 0-15.36 2.048t-14.336 7.168-11.264 9.216-12.288 12.288-10.24 10.24q-19.456-17.408-19.456-40.96t16.384-38.912l117.76-118.784q15.36-15.36 38.912-15.36 22.528 0 38.912 15.36l83.968 82.944q15.36 16.384 15.36 37.888zM430.080 668.16q0 22.528-15.36 38.912l-117.76 117.76q-16.384 16.384-38.912 16.384t-38.912-15.36l-83.968-83.968q-16.384-15.36-16.384-37.888t16.384-38.912l118.784-118.784q15.36-15.36 38.912-15.36t40.96 17.408q-2.048 2.048-11.264 11.264t-12.288 12.288-8.192 10.24-7.168 14.336-2.048 16.384q0 22.528 15.36 38.912t38.912 15.36q9.216 0 16.384-2.048t14.336-7.168 10.24-8.192 12.288-12.288 11.264-11.264q18.432 17.408 18.432 41.984zM942.080 264.704q0-68.608-49.152-115.712l-83.968-82.944q-47.104-48.128-115.712-48.128-69.632 0-116.736 49.152l-117.76 117.76q-47.104 48.128-47.104 116.736 0 69.632 50.176 118.784l-50.176 50.176q-49.152-50.176-118.784-50.176-68.608 0-116.736 48.128l-118.784 118.784q-48.128 48.128-48.128 116.736t48.128 115.712l83.968 83.968q48.128 47.104 116.736 47.104t116.736-48.128l116.736-118.784q48.128-47.104 48.128-115.712 0-70.656-50.176-119.808l50.176-50.176q49.152 50.176 118.784 50.176 68.608 0 116.736-48.128l118.784-118.784q48.128-48.128 48.128-116.736z" />
<glyph unicode="&#xe842;" glyph-name="caret-down" horiz-adv-x="585" d="M584.704 557.568q0-14.336-10.24-25.6l-256-256q-11.264-11.264-25.6-11.264t-25.6 11.264l-256 256q-11.264 11.264-11.264 25.6t11.264 25.6 25.6 11.264h512q14.336 0 25.6-11.264t10.24-25.6z" />
<glyph unicode="&#xe843;" glyph-name="ban-circle" horiz-adv-x="878" d="M749.568 450.048q0 92.16-49.152 167.936l-431.104-430.080q77.824-51.2 169.984-51.2 63.488 0 120.832 25.6t98.304 66.56 66.56 99.328 24.576 121.856zM179.2 279.040l431.104 431.104q-76.8 51.2-171.008 51.2-84.992 0-156.672-40.96t-112.64-114.688-41.984-155.648q0-93.184 51.2-171.008zM877.568 450.048q0-90.112-34.816-172.032t-93.184-140.288-140.288-94.208-169.984-34.816-171.008 34.816-140.288 94.208-93.184 140.288-34.816 172.032 34.816 171.008 93.184 140.288 140.288 93.184 171.008 34.816 169.984-34.816 140.288-93.184 93.184-140.288 34.816-171.008z" />
<glyph unicode="&#xe844;" glyph-name="signin" horiz-adv-x="878" d="M676.864 448q0-14.336-11.264-25.6l-310.272-311.296q-11.264-10.24-26.624-10.24t-25.6 10.24-10.24 25.6v164.864h-256q-15.36 0-25.6 11.264t-11.264 25.6v219.136q0 15.36 11.264 25.6t25.6 11.264h256v164.864q0 14.336 10.24 25.6t25.6 10.24 26.624-10.24l310.272-311.296q11.264-10.24 11.264-25.6zM877.568 648.704v-401.408q0-68.608-48.128-116.736t-116.736-48.128h-182.272q-7.168 0-13.312 5.12t-5.12 13.312q0 2.048-1.024 11.264t0 15.36 2.048 13.312 5.12 11.264 12.288 3.072h182.272q37.888 0 64.512 27.648t27.648 64.512v401.408q0 37.888-27.648 64.512t-64.512 27.648h-178.176t-6.144 0-6.144 2.048-5.12 3.072-4.096 5.12-1.024 8.192q0 2.048-1.024 11.264t0 15.36 2.048 13.312 5.12 11.264 12.288 3.072h182.272q68.608 0 116.736-48.128t48.128-116.736z" />
<glyph unicode="&#xe845;" glyph-name="signout" horiz-adv-x="950" d="M365.568 136.704q0-2.048 1.024-11.264t0-14.336-2.048-14.336-5.12-11.264-12.288-3.072h-182.272q-68.608 0-116.736 48.128t-48.128 116.736v401.408q0 68.608 48.128 116.736t116.736 48.128h182.272q8.192 0 13.312-5.12t5.12-13.312q0-2.048 1.024-11.264t0-15.36-2.048-13.312-5.12-11.264-12.288-3.072h-182.272q-37.888 0-64.512-27.648t-27.648-64.512v-401.408q0-37.888 27.648-64.512t64.512-27.648h178.176t6.144 0 7.168-2.048 4.096-3.072 4.096-5.12 1.024-8.192zM896 448q0-14.336-11.264-25.6l-310.272-311.296q-11.264-10.24-25.6-10.24t-25.6 10.24-11.264 25.6v164.864h-256q-14.336 0-25.6 11.264t-11.264 25.6v219.136q0 15.36 11.264 25.6t25.6 11.264h256v164.864q0 14.336 11.264 25.6t25.6 10.24 25.6-10.24l310.272-311.296q11.264-10.24 11.264-25.6z" />
<glyph unicode="&#xe846;" glyph-name="tint" horiz-adv-x="585" d="M292.864 301.568q0 20.48-11.264 39.936-1.024 0-9.216 12.288t-14.336 21.504-14.336 25.6-12.288 28.672q-2.048 9.216-12.288 9.216t-11.264-9.216q-4.096-13.312-12.288-28.672t-14.336-25.6-14.336-21.504-9.216-12.288q-11.264-19.456-11.264-39.936 0-29.696 21.504-51.2t51.2-21.504 52.224 21.504 21.504 51.2zM584.704 375.296q0-121.856-84.992-206.848t-206.848-86.016-206.848 86.016-86.016 206.848q0 82.944 46.080 156.672 4.096 5.12 35.84 52.224t57.344 86.016 57.344 101.376 47.104 114.688q5.12 17.408 19.456 27.648t29.696 9.216 28.672-9.216 19.456-27.648q16.384-52.224 47.104-114.688t57.344-101.376 57.344-87.040 35.84-51.2q46.080-72.704 46.080-157.696z" />
<glyph unicode="&#xe847;" glyph-name="camera" horiz-adv-x="1097" d="M548.864 576q67.584 0 115.712-48.128t48.128-116.736-48.128-115.712-115.712-48.128-116.736 48.128-48.128 115.712 48.128 116.736 116.736 48.128zM951.296 813.568q60.416 0 103.424-43.008t41.984-103.424v-512q0-60.416-41.984-103.424t-103.424-43.008h-804.864q-60.416 0-103.424 43.008t-43.008 103.424v512q0 60.416 43.008 103.424t103.424 43.008h128l28.672 77.824q11.264 27.648 39.936 48.128t59.392 20.48h292.864q29.696 0 58.368-20.48t39.936-48.128l29.696-77.824h128zM548.864 155.136q105.472 0 180.224 75.776t75.776 180.224-75.776 181.248-180.224 74.752-181.248-74.752-74.752-181.248 74.752-180.224 181.248-75.776z" />
<glyph unicode="&#xe848;" glyph-name="thumbs-up" horiz-adv-x="950" d="M146.432 192q0 15.36-11.264 25.6t-25.6 11.264q-15.36 0-25.6-11.264t-11.264-25.6q0-15.36 11.264-25.6t25.6-11.264q15.36 0 25.6 11.264t11.264 25.6zM237.568 484.864v-365.568q0-15.36-10.24-25.6t-26.624-11.264h-163.84q-15.36 0-25.6 11.264t-11.264 25.6v365.568q0 14.336 11.264 25.6t25.6 10.24h163.84q15.36 0 26.624-10.24t10.24-25.6zM914.432 484.864q0-49.152-31.744-84.992 9.216-25.6 9.216-44.032 1.024-43.008-24.576-77.824 9.216-32.768 0-67.584-9.216-31.744-31.744-53.248 5.12-64.512-27.648-103.424-36.864-44.032-112.64-45.056h-73.728q-37.888 0-81.92 9.216t-69.632 16.384-68.608 22.528q-70.656 24.576-90.112 25.6-15.36 0-26.624 11.264t-10.24 25.6v365.568q0 14.336 10.24 25.6t24.576 11.264q13.312 1.024 43.008 33.792t58.368 68.608q38.912 50.176 57.344 68.608 10.24 10.24 17.408 27.648t10.24 27.648 8.192 34.816q4.096 22.528 7.168 34.816t11.264 29.696 18.432 28.672q11.264 11.264 26.624 11.264 25.6 0 47.104-6.144t33.792-15.36 22.528-22.528 14.336-26.624 7.168-27.648 2.048-26.624 1.024-21.504q0-21.504-6.144-44.032t-10.24-33.792-16.384-31.744q-1.024-4.096-5.12-10.24t-6.144-13.312-5.12-13.312h158.72q44.032 0 76.8-32.768t32.768-76.8z" />
<glyph unicode="&#xe849;" glyph-name="reply" d="M1024 320q0-95.232-72.704-258.048-2.048-4.096-6.144-13.312t-7.168-17.408-8.192-12.288q-6.144-10.24-15.36-10.24t-13.312 6.144-5.12 14.336q0 5.12 1.024 15.36t2.048 13.312q3.072 38.912 3.072 70.656 0 57.344-10.24 103.424t-27.648 78.848-46.080 57.344-60.416 39.936-75.776 24.576-88.064 12.288-100.352 3.072h-128v-146.432q0-14.336-10.24-25.6t-26.624-11.264-25.6 11.264l-291.84 292.864q-11.264 10.24-11.264 25.6t11.264 25.6l291.84 292.864q11.264 10.24 25.6 10.24t26.624-10.24 10.24-25.6v-146.432h128q407.552 0 499.712-230.4 30.72-76.8 30.72-190.464z" />
<glyph unicode="&#xe84a;" glyph-name="chevron-left" horiz-adv-x="731" d="M668.672 787.968l-303.104-303.104 303.104-304.128q11.264-10.24 11.264-25.6t-11.264-25.6l-94.208-95.232q-11.264-10.24-25.6-10.24t-25.6 10.24l-423.936 424.96q-11.264 10.24-11.264 25.6t11.264 25.6l423.936 423.936q10.24 10.24 25.6 10.24t25.6-10.24l94.208-95.232q11.264-10.24 11.264-25.6t-11.264-25.6z" />
<glyph unicode="&#xe84b;" glyph-name="undo" horiz-adv-x="878" d="M877.568 448q0-89.088-34.816-169.984t-93.184-140.288-140.288-94.208-169.984-34.816q-98.304 0-187.392 41.984t-150.528 116.736q-4.096 6.144-4.096 13.312t5.12 11.264l77.824 78.848q6.144 5.12 14.336 5.12 9.216-1.024 13.312-7.168 41.984-54.272 102.4-83.968t129.024-29.696q59.392 0 112.64 23.552t94.208 62.464 62.464 93.184 22.528 113.664-22.528 113.664-62.464 93.184-94.208 62.464-112.64 23.552q-56.32 0-107.52-20.48t-92.16-58.368l78.848-78.848q17.408-16.384 8.192-38.912-10.24-23.552-33.792-23.552h-256q-15.36 0-25.6 11.264t-11.264 25.6v256q0 24.576 22.528 33.792 22.528 10.24 39.936-8.192l73.728-73.728q61.44 58.368 140.288 90.112t162.816 31.744q89.088 0 169.984-34.816t140.288-94.208 93.184-140.288 34.816-169.984z" />
<glyph unicode="&#xe84c;" glyph-name="spinner" d="M301.056 163.328q0-29.696-21.504-51.2t-52.224-21.504q-29.696 0-51.2 21.504t-21.504 51.2q0 30.72 21.504 52.224t51.2 21.504 52.224-21.504 21.504-52.224zM584.704 45.568q0-29.696-20.48-51.2t-52.224-21.504-51.2 21.504-21.504 51.2 21.504 52.224 51.2 21.504 52.224-21.504 20.48-52.224zM183.296 448q0-30.72-21.504-51.2t-52.224-21.504-51.2 21.504-21.504 51.2 21.504 52.224 51.2 20.48 52.224-20.48 21.504-52.224zM869.376 163.328q0-29.696-21.504-51.2t-51.2-21.504q-30.72 0-52.224 21.504t-21.504 51.2 21.504 52.224 52.224 21.504 51.2-21.504 21.504-52.224zM318.464 732.672q0-37.888-26.624-64.512t-64.512-26.624-64.512 26.624-26.624 64.512 26.624 64.512 64.512 26.624 64.512-26.624 26.624-64.512zM987.136 448q0-30.72-21.504-51.2t-51.2-21.504-52.224 21.504-21.504 51.2 21.504 52.224 52.224 20.48 51.2-20.48 21.504-52.224zM621.568 850.432q0-46.080-31.744-77.824t-77.824-31.744-77.824 31.744-31.744 77.824 31.744 77.824 77.824 31.744 77.824-31.744 31.744-77.824zM924.672 732.672q0-53.248-37.888-91.136t-90.112-36.864q-53.248 0-91.136 36.864t-36.864 91.136q0 52.224 36.864 90.112t91.136 37.888q52.224 0 90.112-37.888t37.888-90.112z" />
<glyph unicode="&#xe84d;" glyph-name="comment" d="M1024 448q0-99.328-68.608-183.296t-186.368-133.12-257.024-49.152q-39.936 0-82.944 4.096-112.64-99.328-263.168-138.24-27.648-8.192-64.512-12.288-10.24-1.024-17.408 5.12t-10.24 16.384v1.024q-2.048 2.048 0 6.144t1.024 6.144 2.048 5.12l4.096 5.12t4.096 5.12 4.096 5.12q4.096 5.12 17.408 19.456t20.48 22.528 17.408 22.528 18.432 28.672 15.36 33.792 15.36 43.008q-90.112 51.2-141.312 125.952t-52.224 160.768q0 74.752 40.96 142.336t108.544 116.736 163.84 77.824 198.656 28.672q139.264 0 257.024-49.152t186.368-133.12 68.608-183.296z" />
<glyph unicode="&#xe84e;" glyph-name="envelope" d="M1024 554.496v-453.632q0-37.888-26.624-64.512t-64.512-27.648h-841.728q-36.864 0-64.512 27.648t-26.624 64.512v453.632q25.6-28.672 57.344-50.176 206.848-140.288 284.672-196.608 32.768-24.576 52.224-37.888t54.272-27.648 62.464-13.312h2.048q28.672 0 62.464 13.312t54.272 27.648 52.224 37.888q97.28 69.632 284.672 196.608 32.768 22.528 57.344 50.176zM1024 722.432q0-45.056-27.648-86.016t-69.632-70.656q-215.040-149.504-268.288-185.344-5.12-4.096-23.552-17.408t-30.72-22.528-29.696-18.432-33.792-15.36-27.648-5.12h-2.048q-12.288 0-27.648 5.12t-33.792 15.36-29.696 18.432-30.72 22.528-23.552 17.408q-52.224 35.84-150.528 103.424t-116.736 81.92q-35.84 23.552-66.56 65.536t-31.744 78.848q0 44.032 23.552 73.728t67.584 29.696h841.728q36.864 0 63.488-26.624t27.648-64.512z" />
<glyph unicode="&#xe84f;" glyph-name="phone" horiz-adv-x="804" d="M804.864 251.392q0-15.36-6.144-39.936t-12.288-38.912q-11.264-28.672-69.632-61.44-53.248-28.672-105.472-28.672-16.384 0-30.72 2.048t-32.768 7.168-26.624 8.192-31.744 11.264-28.672 10.24q-55.296 20.48-99.328 48.128-73.728 45.056-151.552 122.88t-122.88 151.552q-27.648 44.032-47.104 99.328-2.048 5.12-10.24 28.672t-12.288 31.744-8.192 26.624-7.168 32.768-2.048 29.696q0 53.248 29.696 106.496 31.744 57.344 60.416 69.632 14.336 6.144 38.912 12.288t39.936 6.144q8.192 0 12.288-2.048 10.24-3.072 30.72-44.032 6.144-10.24 16.384-30.72t20.48-35.84 17.408-30.72q2.048-2.048 10.24-14.336t12.288-20.48 4.096-16.384q0-11.264-16.384-28.672t-35.84-30.72-34.816-30.72-16.384-25.6q0-5.12 3.072-13.312t4.096-11.264 8.192-14.336 7.168-10.24q43.008-78.848 99.328-135.168t134.144-99.328q1.024 0 10.24-6.144t14.336-8.192 11.264-5.12 13.312-2.048q10.24 0 25.6 15.36t30.72 35.84 31.744 35.84 28.672 16.384q7.168 0 15.36-4.096t20.48-12.288 14.336-10.24q14.336-8.192 30.72-17.408t35.84-20.48 31.744-17.408q39.936-19.456 43.008-29.696 2.048-4.096 2.048-12.288z" />
<glyph unicode="&#xe850;" glyph-name="remove" horiz-adv-x="804" d="M741.376 204.288q0-22.528-15.36-38.912l-77.824-77.824q-16.384-15.36-38.912-15.36t-38.912 15.36l-167.936 168.96-167.936-168.96q-16.384-15.36-38.912-15.36t-38.912 15.36l-77.824 77.824q-16.384 16.384-16.384 38.912t16.384 38.912l167.936 167.936-167.936 167.936q-16.384 16.384-16.384 38.912t16.384 38.912l77.824 77.824q16.384 16.384 38.912 16.384t38.912-16.384l167.936-167.936 167.936 167.936q16.384 16.384 38.912 16.384t38.912-16.384l77.824-77.824q15.36-15.36 15.36-38.912t-15.36-38.912l-167.936-167.936 167.936-167.936q15.36-15.36 15.36-38.912z" />
<glyph unicode="&#xe851;" glyph-name="volume-up" horiz-adv-x="950" d="M439.296 759.296v-622.592q0-14.336-11.264-25.6t-25.6-10.24-25.6 10.24l-190.464 190.464h-149.504q-15.36 0-25.6 11.264t-11.264 25.6v219.136q0 15.36 11.264 25.6t25.6 11.264h149.504l190.464 190.464q10.24 10.24 25.6 10.24t25.6-10.24 11.264-25.6zM658.432 448q0-43.008-24.576-80.896t-64.512-53.248q-5.12-3.072-14.336-3.072-14.336 0-25.6 10.24t-10.24 26.624q0 12.288 6.144 20.48t17.408 14.336 19.456 12.288 16.384 20.48 6.144 32.768-6.144 32.768-16.384 20.48-19.456 12.288-17.408 14.336-6.144 20.48q0 15.36 10.24 26.624t25.6 10.24q9.216 0 14.336-3.072 39.936-15.36 64.512-53.248t24.576-80.896zM804.864 448q0-87.040-49.152-161.792t-128-107.52q-8.192-3.072-14.336-3.072-15.36 0-26.624 11.264t-10.24 25.6q0 22.528 21.504 33.792 32.768 16.384 44.032 25.6 41.984 30.72 65.536 76.8t23.552 99.328-23.552 99.328-65.536 76.8q-11.264 9.216-44.032 25.6-21.504 11.264-21.504 33.792 0 14.336 10.24 25.6t25.6 11.264q7.168 0 15.36-3.072 79.872-33.792 128-107.52t49.152-161.792zM951.296 448q0-131.072-72.704-241.664t-193.536-161.792q-7.168-3.072-14.336-3.072-15.36 0-26.624 11.264t-10.24 25.6q0 20.48 22.528 33.792 4.096 2.048 12.288 6.144t13.312 6.144q25.6 14.336 46.080 28.672 70.656 52.224 110.592 130.048t38.912 164.864-38.912 164.864-110.592 130.048q-20.48 14.336-46.080 28.672-4.096 3.072-13.312 6.144t-12.288 6.144q-22.528 13.312-22.528 33.792 0 14.336 10.24 25.6t26.624 11.264q7.168 0 14.336-3.072 120.832-52.224 193.536-161.792t72.704-241.664z" />
<glyph unicode="&#xe852;" glyph-name="picture" horiz-adv-x="1097" d="M365.568 631.296q0-46.080-31.744-77.824t-77.824-32.768-77.824 32.768-31.744 77.824 31.744 76.8 77.824 32.768 77.824-32.768 31.744-76.8zM951.296 411.136v-256h-804.864v109.568l182.272 183.296 92.16-91.136 291.84 291.84zM1005.568 813.568h-914.432q-7.168 0-12.288-5.12t-6.144-13.312v-694.272q0-8.192 6.144-13.312t12.288-5.12h914.432q7.168 0 13.312 5.12t5.12 13.312v694.272q0 7.168-5.12 13.312t-13.312 5.12zM1096.704 795.136v-694.272q0-37.888-26.624-64.512t-64.512-27.648h-914.432q-36.864 0-64.512 27.648t-26.624 64.512v694.272q0 37.888 26.624 64.512t64.512 27.648h914.432q37.888 0 64.512-27.648t26.624-64.512z" />
<glyph unicode="&#xe853;" glyph-name="refresh" horiz-adv-x="878" d="M863.232 356.864q0-3.072 0-4.096-36.864-153.6-153.6-248.832t-273.408-95.232q-82.944 0-160.768 31.744t-139.264 90.112l-73.728-73.728q-11.264-11.264-25.6-11.264t-25.6 11.264-11.264 25.6v256q0 14.336 11.264 25.6t25.6 11.264h256q14.336 0 25.6-11.264t10.24-25.6-10.24-25.6l-78.848-78.848q40.96-37.888 92.16-58.368t107.52-20.48q75.776 0 142.336 37.888t106.496 101.376q6.144 10.24 29.696 67.584 5.12 13.312 17.408 13.312h109.568q8.192 0 13.312-6.144t5.12-12.288zM877.568 813.568v-256q0-14.336-10.24-25.6t-26.624-11.264h-256q-14.336 0-25.6 11.264t-10.24 25.6 10.24 25.6l78.848 78.848q-83.968 78.848-198.656 78.848-76.8 0-143.36-37.888t-106.496-101.376q-6.144-10.24-29.696-67.584-5.12-13.312-17.408-13.312h-113.664q-7.168 0-13.312 6.144t-5.12 12.288v4.096q36.864 153.6 154.624 248.832t274.432 95.232q82.944 0 161.792-31.744t140.288-90.112l73.728 73.728q11.264 11.264 25.6 11.264t26.624-11.264 10.24-25.6z" />
<glyph unicode="&#xe854;" glyph-name="question-sign" horiz-adv-x="878" d="M512 173.568v109.568q0 8.192-5.12 13.312t-13.312 5.12h-109.568q-8.192 0-13.312-5.12t-5.12-13.312v-109.568q0-8.192 5.12-13.312t13.312-5.12h109.568q8.192 0 13.312 5.12t5.12 13.312zM658.432 557.568q0 50.176-31.744 93.184t-78.848 66.56-97.28 23.552q-139.264 0-211.968-121.856-9.216-14.336 4.096-24.576l75.776-56.32q4.096-4.096 10.24-4.096 9.216 0 14.336 7.168 30.72 38.912 49.152 52.224 19.456 14.336 49.152 14.336 27.648 0 49.152-15.36t21.504-33.792q0-21.504-11.264-34.816t-38.912-25.6q-35.84-16.384-66.56-49.152t-29.696-71.68v-20.48q0-8.192 5.12-13.312t13.312-5.12h109.568q8.192 0 13.312 5.12t5.12 13.312q0 10.24 12.288 27.648t30.72 28.672q18.432 10.24 28.672 16.384t25.6 19.456 25.6 27.648 16.384 34.816 7.168 46.080zM877.568 448q0-119.808-58.368-220.16t-159.744-159.744-220.16-59.392-221.184 59.392-158.72 159.744-59.392 220.16 59.392 220.16 158.72 159.744 221.184 59.392 220.16-59.392 159.744-159.744 58.368-220.16z" />
<glyph unicode="&#xe855;" glyph-name="chevron-right" horiz-adv-x="731" d="M632.832 459.264l-423.936-424.96q-11.264-10.24-25.6-10.24t-26.624 10.24l-94.208 95.232q-11.264 11.264-11.264 25.6t11.264 25.6l303.104 304.128-303.104 303.104q-11.264 11.264-11.264 25.6t11.264 25.6l94.208 95.232q11.264 10.24 26.624 10.24t25.6-10.24l423.936-423.936q10.24-11.264 10.24-25.6t-10.24-25.6z" />
<glyph unicode="&#xe856;" glyph-name="heart-empty" d="M951.296 619.008q0 47.104-12.288 81.92t-31.744 56.32-47.104 33.792-53.248 18.432-56.32 4.096-63.488-14.336-63.488-36.864-49.152-40.96-34.816-34.816q-10.24-13.312-27.648-13.312t-27.648 13.312q-14.336 15.36-34.816 34.816t-49.152 40.96-63.488 36.864-63.488 14.336-56.32-4.096-53.248-18.432-47.104-33.792-31.744-56.32-12.288-81.92q0-95.232 107.52-202.752l331.776-319.488 331.776 319.488q107.52 107.52 107.52 202.752zM1024 619.008q0-125.952-131.072-257.024l-355.328-343.040q-10.24-10.24-25.6-10.24t-25.6 10.24l-356.352 344.064q-5.12 5.12-15.36 15.36t-31.744 36.864-38.912 56.32-30.72 68.608-13.312 78.848q0 125.952 72.704 196.608t200.704 71.68q34.816 0 71.68-12.288t68.608-33.792 55.296-38.912 43.008-38.912q20.48 20.48 43.008 38.912t55.296 38.912 68.608 33.792 71.68 12.288q128 0 200.704-71.68t72.704-196.608z" />
<glyph unicode="&#xe857;" glyph-name="play" horiz-adv-x="804" d="M790.528 430.592l-758.784-421.888q-13.312-7.168-22.528-2.048t-9.216 20.48v841.728q0 14.336 9.216 20.48t22.528-2.048l758.784-421.888q13.312-7.168 13.312-17.408t-13.312-17.408z" />
<glyph unicode="&#xe858;" glyph-name="pause" horiz-adv-x="878" d="M877.568 850.432v-804.864q0-14.336-10.24-25.6t-26.624-11.264h-291.84q-15.36 0-25.6 11.264t-11.264 25.6v804.864q0 14.336 11.264 25.6t25.6 11.264h291.84q15.36 0 26.624-11.264t10.24-25.6zM365.568 850.432v-804.864q0-14.336-10.24-25.6t-26.624-11.264h-291.84q-15.36 0-25.6 11.264t-11.264 25.6v804.864q0 14.336 11.264 25.6t25.6 11.264h291.84q15.36 0 26.624-11.264t10.24-25.6z" />
<glyph unicode="&#xe859;" glyph-name="step-backward" horiz-adv-x="585" d="M559.104 879.104q11.264 11.264 18.432 8.192t7.168-18.432v-841.728q0-14.336-7.168-18.432t-18.432 8.192l-405.504 405.504q-5.12 5.12-7.168 11.264v-388.096q0-14.336-11.264-25.6t-25.6-11.264h-72.704q-15.36 0-25.6 11.264t-11.264 25.6v804.864q0 14.336 11.264 25.6t25.6 11.264h72.704q15.36 0 25.6-11.264t11.264-25.6v-388.096q2.048 7.168 7.168 11.264z" />
<glyph unicode="&#xe85a;" glyph-name="step-forward" horiz-adv-x="585" d="M25.6 16.896q-10.24-11.264-18.432-8.192t-7.168 18.432v841.728q0 14.336 7.168 18.432t18.432-8.192l405.504-405.504q5.12-4.096 8.192-11.264v388.096q0 14.336 10.24 25.6t25.6 11.264h73.728q14.336 0 25.6-11.264t10.24-25.6v-804.864q0-14.336-10.24-25.6t-25.6-11.264h-73.728q-14.336 0-25.6 11.264t-10.24 25.6v388.096q-3.072-6.144-8.192-11.264z" />
<glyph unicode="&#xe85b;" glyph-name="music-alt" horiz-adv-x="596" d="M390.144 929.28q0-43.008 47.104-99.328t92.16-102.4 62.464-121.856-39.936-157.696q-20.48-34.816-26.624-16.384-2.048 6.144 0 16.384 10.24 18.432 6.144 57.344t-13.312 79.872-44.032 74.752-83.968 41.984v-548.864q2.048-49.152-37.888-97.28t-107.52-72.704q-75.776-28.672-146.432-8.192t-91.136 77.824 20.48 117.76 118.784 87.040q88.064 30.72 161.792 4.096v667.648h81.92z" />
<glyph unicode="&#xe85c;" glyph-name="search" horiz-adv-x="808" d="M790.528 169.472q30.72-34.816 6.144-63.488l-47.104-47.104q-36.864-32.768-69.632 0l-194.56 194.56q-75.776-43.008-159.744-43.008-131.072 0-228.352 97.28t-97.28 228.352 92.16 224.256 223.232 93.184 229.376-97.28 98.304-228.352q0-90.112-47.104-165.888zM96.256 536.064q0-90.112 69.632-159.744t159.744-69.632 154.624 64.512 64.512 156.672q0 90.112-69.632 158.72t-159.744 68.608-154.624-64.512-64.512-154.624z" />
<glyph unicode="&#xe85d;" glyph-name="flashlight" horiz-adv-x="924" d="M826.368 812.544q63.488-63.488 87.040-133.12t-5.12-94.208l-137.216-137.216q-16.384-16.384-63.488-26.624t-98.304-4.096l-417.792-417.792q-18.432-18.432-58.368-6.144t-76.8 51.2q-36.864 36.864-50.176 75.776t5.12 57.344l417.792 417.792q-6.144 51.2 4.096 98.304t26.624 63.488l139.264 139.264q24.576 28.672 94.208 4.096t133.12-88.064zM367.616 394.752q32.768-32.768 81.92 14.336 47.104 47.104 14.336 83.968-14.336 14.336-38.912 10.24t-45.056-24.576-23.552-44.032 11.264-39.936zM711.68 699.904q30.72-30.72 69.632-51.2t63.488-25.6 28.672-1.024q2.048 4.096-4.096 27.648t-26.624 61.44-51.2 68.608-67.584 51.2-60.416 26.624-27.648 2.048 1.024-28.672 25.6-63.488 49.152-67.584z" />
<glyph unicode="&#xe85e;" glyph-name="envelope-alt" horiz-adv-x="922" d="M30.72 689.664q-32.768 18.432-28.672 40.96 2.048 14.336 26.624 14.336h866.304q38.912 0 20.48-32.768-8.192-14.336-24.576-22.528-14.336-6.144-196.608-104.448t-186.368-100.352q-16.384-10.24-47.104-10.24-28.672 0-47.104 10.24-4.096 2.048-186.368 100.352t-196.608 104.448zM901.12 587.264q20.48 10.24 20.48-10.24v-376.832q0-16.384-17.408-32.768t-33.792-16.384h-819.2q-16.384 0-33.792 16.384t-17.408 32.768v376.832q0 20.48 20.48 10.24l393.216-204.8q18.432-10.24 47.104-10.24t47.104 10.24z" />
<glyph unicode="&#xe85f;" glyph-name="heart-empty-alt" horiz-adv-x="881" d="M808.96 747.008q71.68-65.536 71.68-159.744t-71.68-159.744l-368.64-337.92-368.64 337.92q-71.68 65.536-71.68 159.744t71.68 159.744q65.536 59.392 155.648 59.392t153.6-59.392l59.392-53.248 57.344 53.248q65.536 59.392 155.648 59.392t155.648-59.392zM753.664 480.768q43.008 40.96 43.008 106.496 0 67.584-38.912 102.4-38.912 38.912-104.448 38.912-53.248 0-106.496-49.152l-106.496-94.208-108.544 94.208q-49.152 49.152-104.448 49.152-65.536 0-106.496-38.912-38.912-36.864-38.912-102.4 0-67.584 45.056-106.496l313.344-292.864z" />
<glyph unicode="&#xe860;" glyph-name="star-empty" horiz-adv-x="901" d="M901.12 554.496l-268.288-200.704 96.256-356.352-278.528 212.992-278.528-212.992 96.256 356.352-268.288 200.704h327.68l122.88 344.064 122.88-344.064h327.68zM450.56 310.784l153.6-126.976-63.488 182.272 147.456 116.736-180.224-4.096-57.344 206.848-55.296-206.848-180.224 4.096 145.408-116.736-63.488-182.272z" />
<glyph unicode="&#xe861;" glyph-name="picture-alt" d="M876.544 620.032h-102.4l-126.976 153.6-219.136-153.6h-184.32q-53.248 0-92.16-39.936t-38.912-93.184v-163.84l-110.592 303.104q-10.24 38.912 22.528 53.248l696.32 253.952q36.864 10.24 51.2-24.576zM985.088 527.872q16.384 0 27.648-12.288t11.264-28.672v-483.328q0-16.384-11.264-28.672t-27.648-12.288h-741.376q-16.384 0-27.648 12.288t-11.264 28.672v483.328q0 16.384 11.264 28.672t27.648 12.288h741.376zM927.744 65.024v165.888l-73.728 163.84-169.984-61.44-133.12-135.168-141.312 174.080-94.208-219.136v-88.064h612.352z" />
<glyph unicode="&#xe862;" glyph-name="camera-alt" d="M512 550.4q65.536 0 109.568-45.056t44.032-108.544-45.056-108.544-108.544-45.056-108.544 45.056-45.056 108.544 45.056 108.544 108.544 45.056zM921.6 704q43.008 0 72.704-29.696t29.696-72.704v-460.8q0-40.96-29.696-71.68t-72.704-30.72h-819.2q-40.96 0-71.68 30.72t-30.72 71.68v460.8q0 43.008 30.72 72.704t71.68 29.696h122.88q28.672 0 40.96 30.72l30.72 94.208q10.24 28.672 40.96 28.672h348.16q30.72 0 40.96-28.672l30.72-94.208q12.288-30.72 40.96-30.72h122.88zM512 140.8q106.496 0 181.248 74.752t74.752 181.248-74.752 181.248-181.248 74.752-181.248-74.752-74.752-181.248 74.752-181.248 181.248-74.752zM886.784 529.92q14.336 0 24.576 11.264t10.24 25.6-10.24 24.576-24.576 10.24q-36.864 0-36.864-34.816 0-16.384 11.264-26.624t25.6-10.24z" />
<glyph unicode="&#xe863;" glyph-name="home-alt" horiz-adv-x="922" d="M909.312 433.664q16.384-16.384 11.264-27.648t-27.648-11.264h-86.016v-317.44q0-14.336-1.024-21.504t-8.192-13.312-23.552-6.144h-208.896v317.44h-208.896v-317.44h-198.656q-28.672 0-35.84 10.24t-7.168 30.72v317.44h-86.016q-22.528 0-27.648 11.264t11.264 27.648l409.6 411.648q16.384 16.384 38.912 16.384t38.912-16.384z" />
<glyph unicode="&#xe864;" glyph-name="tag" horiz-adv-x="983" d="M966.656 939.52q36.864-108.544-8.192-203.776t-131.072-160.768l18.432-24.576q16.384-28.672 6.144-55.296l-49.152-161.792q-12.288-30.72-36.864-47.104l-475.136-335.872q-43.008-30.72-65.536 4.096l-215.040 311.296q-12.288 18.432-9.216 39.936t21.504 33.792l475.136 335.872q26.624 18.432 55.296 18.432h161.792q30.72 0 49.152-26.624l28.672-40.96q172.032 133.12 116.736 292.864-10.24 28.672 18.432 40.96 32.768 8.192 38.912-20.48zM745.472 460.288q40.96 32.768 34.816 81.92l-32.768-16.384q-8.192-4.096-12.288-4.096-18.432 0-28.672 18.432-12.288 30.72 16.384 40.96l24.576 14.336q-49.152 34.816-94.208 0-28.672-18.432-34.816-52.224t14.336-62.464q18.432-26.624 52.224-32.768t60.416 12.288z" />
<glyph unicode="&#xe865;" glyph-name="thumbs-up-alt" horiz-adv-x="819" d="M595.968 581.12q2.048-6.144 59.392-13.312t110.592-24.576 53.248-48.128q0-73.728-62.464-290.816t-109.568-217.088q-147.456 0-294.912 43.008t-147.456 90.112v350.208q0 14.336 15.36 34.816t47.104 46.080 54.272 41.984 63.488 44.032 47.104 31.744q51.2 34.816 106.496 102.4t87.040 106.496 41.984 26.624q49.152-77.824 29.696-140.288t-60.416-121.856-40.96-61.44zM153.6 577.024q14.336 0 0-14.336-51.2-51.2-51.2-106.496v-325.632q0-51.2 53.248-106.496 10.24-10.24-2.048-10.24-26.624 0-56.32 8.192t-63.488 46.080-33.792 101.376v247.808q0 63.488 33.792 102.4t64.512 48.128 55.296 9.216z" />
<glyph unicode="&#xe866;" glyph-name="thumbs-down" horiz-adv-x="819" d="M223.232 312.832q-2.048 6.144-58.368 13.312t-110.592 24.576-54.272 48.128q0 73.728 63.488 291.84t108.544 218.112q147.456 0 294.912-44.032t147.456-91.136v-350.208q0-10.24-8.192-24.576t-25.6-30.72-32.768-29.696-43.008-32.768-41.984-29.696-41.984-28.672l-33.792-22.528q-51.2-34.816-106.496-102.4t-87.040-106.496-41.984-26.624q-49.152 77.824-29.696 140.288t60.416 121.856 40.96 61.44zM665.6 316.928q-12.288 0 2.048 14.336 49.152 51.2 49.152 106.496v325.632q0 51.2-53.248 106.496-10.24 10.24 2.048 10.24 26.624 0 56.32-8.192t63.488-46.080 33.792-101.376v-247.808q0-49.152-18.432-82.944t-46.080-49.152-49.152-21.504-39.936-6.144z" />
<glyph unicode="&#xe867;" glyph-name="flag-alt" horiz-adv-x="922" d="M894.976 720.384q14.336 6.144 22.528-1.024t0-19.456q-98.304-141.312-167.936-218.112t-112.64-92.16-74.752-2.048-61.44 37.888-64.512 40.96-95.232-4.096-142.336-88.064l92.16-360.448h-102.4l-188.416 737.28 94.208 34.816q92.16 67.584 155.648 88.064t100.352 3.072 65.536-52.224 63.488-72.704 80.896-63.488 132.096-20.48 202.752 52.224z" />
<glyph unicode="&#xe868;" glyph-name="quote" horiz-adv-x="780" d="M149.504 785.92q149.504 0 188.416-149.504 38.912-143.36-40.96-309.248-81.92-172.032-229.376-208.896-32.768-8.192-67.584-8.192v71.68q114.688 0 186.368 110.592 55.296 88.064 26.624 149.504-16.384 36.864-63.488 36.864-61.44 0-105.472 45.056t-44.032 108.544 44.032 108.544 105.472 45.056zM579.584 785.92q149.504 0 188.416-149.504 38.912-143.36-40.96-309.248-81.92-172.032-229.376-208.896-32.768-8.192-67.584-8.192v71.68q114.688 0 186.368 110.592 55.296 88.064 26.624 149.504-16.384 36.864-63.488 36.864-61.44 0-105.472 45.056t-44.032 108.544 44.032 108.544 105.472 45.056z" />
<glyph unicode="&#xe869;" glyph-name="comment-alt" horiz-adv-x="819" d="M716.8 806.4q43.008 0 72.704-29.696t29.696-72.704v-358.4q0-40.96-29.696-71.68t-72.704-30.72h-204.8v-153.6l-204.8 153.6h-204.8q-40.96 0-71.68 30.72t-30.72 71.68v358.4q0 43.008 30.72 72.704t71.68 29.696h614.4z" />
<glyph unicode="&#xe86a;" glyph-name="chat" d="M296.96 335.36h358.4q2.048 0 6.144 2.048h4.096v-94.208q0-40.96-29.696-71.68t-72.704-30.72h-256l-153.6-153.6v153.6h-51.2q-40.96 0-71.68 30.72t-30.72 71.68v307.2q0 43.008 30.72 72.704t71.68 29.696h194.56v-317.44zM921.6 908.8q43.008 0 72.704-29.696t29.696-72.704v-307.2q0-40.96-29.696-71.68t-72.704-30.72h-51.2v-153.6l-153.6 153.6h-358.4v409.6q0 43.008 30.72 72.704t71.68 29.696h460.8z" />
<glyph unicode="&#xe86b;" glyph-name="vcard" d="M921.6 857.6q43.008 0 72.704-29.696t29.696-72.704v-614.4q0-40.96-29.696-71.68t-72.704-30.72h-819.2q-40.96 0-71.68 30.72t-30.72 71.68v614.4q0 43.008 30.72 72.704t71.68 29.696h819.2zM921.6 140.8v614.4h-819.2v-614.4h819.2zM460.8 341.504v-92.16h-256v92.16h256zM460.8 495.104v-92.16h-256v92.16h256zM460.8 648.704v-92.16h-256v92.16h256zM815.104 321.024l4.096-71.68h-256q0 71.68 6.144 71.68 86.016 22.528 86.016 67.584 0 16.384-27.648 57.344t-27.648 90.112q0 112.64 92.16 112.64t92.16-112.64q0-49.152-28.672-90.112t-28.672-57.344q0-20.48 21.504-36.864t44.032-22.528z" />
<glyph unicode="&#xe86c;" glyph-name="address" d="M436.224 908.8q20.48 0 20.48-20.48v-880.64q0-20.48-20.48-20.48h-47.104q-20.48 0-20.48 20.48v450.56h-180.224q-16.384 0-28.672 6.144-12.288 2.048-26.624 12.288l-122.88 83.968q-10.24 6.144-10.24 16.384t10.24 16.384l122.88 83.968q14.336 10.24 26.624 12.288 8.192 4.096 28.672 4.096h180.224v194.56q0 20.48 20.48 20.48h47.104zM1013.76 695.808q10.24-6.144 10.24-16.384t-10.24-16.384l-120.832-83.968q-22.528-12.288-26.624-12.288-14.336-6.144-28.672-6.144h-309.248l-40.96 235.52h350.208q18.432 0 28.672-4.096t26.624-12.288z" />
<glyph unicode="&#xe86d;" glyph-name="location" horiz-adv-x="512" d="M256 857.6q106.496 0 181.248-74.752t74.752-181.248q0-108.544-63.488-248.832t-129.024-228.352l-63.488-86.016q-10.24 12.288-27.648 35.84t-61.44 91.136-77.824 133.12-61.44 150.528-27.648 152.576q0 106.496 74.752 181.248t181.248 74.752zM256 460.288q57.344 0 98.304 40.96t40.96 98.304-40.96 97.28-98.304 39.936-97.28-39.936-39.936-97.28 39.936-98.304 97.28-40.96z" />
<glyph unicode="&#xe86e;" glyph-name="trash" horiz-adv-x="778" d="M51.2 558.592q124.928-71.68 337.92-71.68t337.92 71.68l-55.296-497.664q-2.048-14.336-35.84-36.864t-102.4-44.032-144.384-21.504-143.36 21.504-102.4 44.032-36.864 36.864zM550.912 865.792q96.256-18.432 161.792-56.32t65.536-72.704v-10.24q0-59.392-114.688-101.376t-274.432-41.984-274.432 41.984-114.688 101.376v10.24q0 34.816 65.536 72.704t161.792 56.32l43.008 49.152q22.528 26.624 71.68 26.624h94.208q53.248 0 71.68-26.624zM495.616 751.104h86.016q-94.208 112.64-106.496 129.024-14.336 16.384-32.768 16.384h-104.448q-22.528 0-32.768-16.384l-108.544-129.024h86.016l65.536 67.584h83.968z" />
<glyph unicode="&#xe86f;" glyph-name="tools" d="M158.72 607.744q-8.192-8.192-11.264-22.528t-3.072-25.6-2.048-11.264q-2.048-2.048-17.408-15.36t-19.456-17.408q-16.384-14.336-28.672 4.096l-71.68 77.824q-11.264 12.288 2.048 24.576 2.048 2.048 18.432 14.336t20.48 16.384q6.144 6.144 27.648 6.144t37.888 14.336q14.336 14.336 18.432 38.912t10.24 30.72q2.048 0 9.216 7.168t26.624 22.528 41.984 31.744q137.216 92.16 190.464 98.304 124.928 0 151.552-2.048 12.288 0-8.192-8.192-122.88-53.248-155.648-77.824-81.92-57.344-36.864-116.736 34.816-47.104 38.912-49.152 8.192-8.192-2.048-14.336-2.048-2.048-38.912-35.84t-38.912-35.84q-14.336-8.192-18.432-4.096-43.008 49.152-72.704 61.44t-68.608-12.288zM451.584 581.12l419.84-487.424q18.432-22.528-2.048-38.912l-49.152-43.008q-22.528-14.336-38.912 4.096l-423.936 483.328q-8.192 8.192 0 20.48l73.728 63.488q12.288 8.192 20.48-2.048zM1018.88 787.968q16.384-106.496-16.384-169.984-51.2-90.112-157.696-63.488-57.344 12.288-102.4-32.768l-83.968-79.872-69.632 79.872 69.632 71.68q24.576 24.576 31.744 54.272t6.144 66.56 5.12 59.392q12.288 57.344 143.36 114.688 12.288 6.144 18.432-3.072t2.048-15.36q-12.288-12.288-47.104-81.92-14.336-10.24-12.288-35.84t40.96-54.272q59.392-40.96 98.304 22.528 6.144 12.288 26.624 41.984t22.528 33.792q4.096 10.24 13.312 9.216t11.264-17.408zM140.288 87.552l260.096 253.952 77.824-88.064-251.904-247.808q-20.48-20.48-38.912-4.096l-47.104 47.104q-22.528 18.432 0 38.912z" />
<glyph unicode="&#xe870;" glyph-name="clock" horiz-adv-x="942" d="M471.040 919.040q194.56 0 332.8-138.24t138.24-332.8-138.24-332.8-332.8-138.24-332.8 138.24-138.24 332.8 138.24 332.8 332.8 138.24zM471.040 79.36q153.6 0 261.12 108.544t107.52 260.096q0 153.6-107.52 261.12t-261.12 107.52q-151.552 0-260.096-107.52t-108.544-261.12q0-151.552 108.544-260.096t260.096-108.544zM507.904 714.24v-249.856l153.6-153.6-51.2-51.2-174.080 174.080v280.576h71.68z" />
<glyph unicode="&#xe871;" glyph-name="screenshot-alt" horiz-adv-x="881" d="M440.32 888.32q182.272 0 311.296-129.024t129.024-311.296-129.024-311.296-311.296-129.024-311.296 129.024-129.024 311.296 129.024 311.296 311.296 129.024zM477.184 91.648q126.976 14.336 217.088 104.448t102.4 217.088h-196.608v71.68h196.608q-12.288 126.976-102.4 217.088t-217.088 104.448v-198.656h-71.68v198.656q-126.976-14.336-218.112-104.448t-103.424-217.088h198.656v-71.68h-198.656q12.288-126.976 103.424-217.088t218.112-104.448v198.656h71.68v-198.656z" />
<glyph unicode="&#xe872;" glyph-name="trophy" horiz-adv-x="922" d="M522.24 226.816v-67.584q71.68-8.192 118.784-32.768t47.104-57.344q0-36.864-66.56-64.512t-160.768-27.648q-92.16 0-159.744 27.648t-67.584 64.512q0 32.768 47.104 57.344t120.832 32.768v67.584q0 51.2-33.792 86.016t-115.712 90.112q-57.344 36.864-89.088 62.464t-76.8 73.728-65.536 110.592-20.48 140.288q0 14.336 11.264 24.576t25.6 10.24h176.128q49.152 94.208 247.808 94.208 200.704 0 249.856-94.208h174.080q14.336 0 25.6-10.24t11.264-24.576q0-77.824-20.48-140.288t-65.536-110.592-76.8-73.728-89.088-62.464q-79.872-53.248-113.664-89.088t-33.792-87.040zM663.552 484.864q81.92 57.344 129.024 116.736t55.296 151.552h-129.024q-6.144-161.792-55.296-268.288zM460.8 857.6q-63.488 0-110.592-15.36t-65.536-32.768-18.432-29.696q0-14.336 18.432-31.744t65.536-32.768 110.592-15.36 110.592 15.36 65.536 32.768 18.432 31.744q0 12.288-18.432 29.696t-65.536 32.768-110.592 15.36zM73.728 753.152q8.192-92.16 55.296-151.552t129.024-116.736q-49.152 106.496-55.296 268.288h-129.024z" />
<glyph unicode="&#xe873;" glyph-name="bolt-alt" horiz-adv-x="410" d="M40.96-12.8q-4.096 4.096 35.84 96.256t80.896 186.368 38.912 100.352-96.256 46.080-100.352 56.32q-4.096 12.288 86.016 122.88t184.32 214.016 98.304 99.328q6.144-4.096-75.776-190.464t-79.872-190.464 97.28-44.032 99.328-58.368q4.096-20.48-178.176-232.448t-190.464-205.824z" />
<glyph unicode="&#xe874;" glyph-name="moon-alt" horiz-adv-x="840" d="M536.576 333.312q108.544 108.544 128 258.048t-54.272 276.48q53.248-26.624 98.304-73.728 131.072-131.072 131.072-316.416t-131.072-316.416-317.44-131.072-317.44 131.072q-40.96 40.96-73.728 96.256 126.976-71.68 277.504-52.224t259.072 128z" />
<glyph unicode="&#xe875;" glyph-name="plane-alt" d="M274.432-33.28l126.976 409.6h-184.32l-114.688-102.4h-102.4l81.92 174.080-81.92 174.080h102.4l114.688-102.4h184.32l-126.976 409.6h102.4l229.376-409.6h280.576t36.864-4.096 47.104-11.264 36.864-21.504 16.384-34.816q0-32.768-38.912-50.176t-75.776-19.456l-38.912-2.048h-264.192l-229.376-409.6h-102.4z" />
<glyph unicode="&#xe876;" glyph-name="leaf-alt" horiz-adv-x="963" d="M241.664 751.104q186.368 108.544 518.144 67.584 172.032-22.528 200.704-51.2 4.096-6.144-2.048-10.24-77.824-40.96-133.12-111.616t-79.872-135.168-66.56-135.168-95.232-107.52q-141.312-98.304-391.168-4.096-67.584-77.824-116.736-180.224-12.288-24.576-48.128-7.168t-25.6 39.936q45.056 102.4 132.096 197.632t180.224 156.672 180.224 108.544 144.384 69.632l55.296 20.48q-14.336 0-41.984-1.024t-106.496-14.336-151.552-38.912-165.888-86.016-164.864-144.384q-22.528 247.808 178.176 366.592z" />
</font>
</defs>
</svg>
